<?xml version="1.0" encoding="utf-8"?>
<!-- Generator: Adobe Illustrator 16.0.0, SVG Export Plug-In . SVG Version: 6.00 Build 0)  -->
<!DOCTYPE svg PUBLIC "-//W3C//DTD SVG 1.1//EN" "http://www.w3.org/Graphics/SVG/1.1/DTD/svg11.dtd">
<svg version="1.1" id="Layer_1" xmlns="http://www.w3.org/2000/svg" xmlns:xlink="http://www.w3.org/1999/xlink" x="0px" y="0px"
	 width="100px" height="100px" viewBox="0 0 100 100" enable-background="new 0 0 100 100" xml:space="preserve">
<path fill-rule="evenodd" clip-rule="evenodd" fill="#FFFFFF" d="M44.095,93.974c-1.233-0.171-3.42-0.324-5.533-0.805
	c-2.682-0.611-5.303-1.486-7.95-2.251c-0.14-0.04-0.274-0.094-0.413-0.139c-2.549-0.822-4.138-2.472-4.72-5.148
	c-0.799-3.683-1.78-7.328-2.563-11.014c-1.088-5.108-2.196-10.205-3.626-15.232c-0.475-1.668-0.754-3.395-1.08-5.103
	c-0.218-1.136-0.227-2.313-0.789-3.37c-0.578-1.09-0.51-2.242-0.238-3.395c0.1-0.423,0.209-0.85,0.379-1.247
	c0.415-0.965,0.432-1.927,0.299-2.97c-0.457-3.583,1.037-6.504,3.393-9.031c0.569-0.611,1.429-0.97,2.187-1.388
	c1.775-0.975,3.448-1.987,4.782-3.633c1.476-1.825,3.618-2.875,5.816-3.698c0.723-0.272,1.213-0.724,1.599-1.374
	c0.813-1.369,1.649-2.726,2.505-4.07c1.133-1.78,2.725-2.908,4.729-3.634c1.211-0.44,2.684-0.309,3.623-1.31
	c0.786-0.836,1.35-1.878,2.032-2.814c0.341-0.468,0.781-0.867,1.095-1.351c1.794-2.765,4.513-3.983,7.603-4.558
	c1.008-0.188,1.942-0.383,2.75-1.136c1.523-1.418,3.335-1.603,5.268-0.926c0.272,0.096,0.573,0.109,0.843,0.21
	c0.571,0.214,1.013,0.591,1.063,1.236c0.057,0.718,0.062,1.442,0.06,2.164c-0.003,0.468-0.616,1.133-1.106,1.214
	c-2.009,0.334-3.998,0.587-5.913-0.489c-0.463-0.259-1.123-0.338-1.656-0.259c-1.874,0.282-3.644,0.934-5.366,1.714
	c-1.102,0.498-1.854,1.382-2.528,2.334c-0.5,0.704-0.947,1.451-1.382,2.198c-0.237,0.409,0.024,1.331,0.462,1.546
	c2.395,1.177,4.222,3.026,6.001,4.95c2.245,2.423,5.035,3.921,8.313,4.23c2.83,0.267,5.371,1.076,7.647,2.788
	c0.924,0.694,1.952,1.256,2.943,1.856c4.211,2.548,6.487,6.526,8.062,10.994c0.443,1.25,0.415,2.576,0.107,3.872
	c-0.235,0.985-0.542,1.954-0.755,2.944c-0.473,2.176-1.193,4.178-3.206,5.456c-0.498,0.317-0.73,0.875-0.815,1.476
	c-0.315,2.302-0.638,4.6-0.963,6.898c-0.145,1.006-0.193,2.041-0.485,3.004c-0.466,1.551-0.614,3.133-0.684,4.724
	c-0.089,2.035-0.312,4.045-0.754,6.037c-0.475,2.13-0.702,4.295-0.66,6.483c0.064,3.226-1.468,5.517-4.191,7.094
	c-1.133,0.653-2.228,1.394-3.423,1.899c-1.459,0.616-2.977,1.188-4.523,1.491c-2.271,0.446-4.585,0.731-6.896,0.917
	c-3.029,0.24-6.088,0.051-9.099,0.604C45.914,94.04,45.467,93.974,44.095,93.974z M52.251,30.488
	c-0.067,0.098-0.153,0.189-0.195,0.298c-0.017,0.052,0.05,0.137,0.077,0.208c0.002-0.189,0.008-0.378,0.037-0.542l0.287,0.114
	L52.251,30.488z M20.239,49.872c0.106-0.321,0.002-0.548-0.326-0.612c-0.056-0.013-0.24,0.214-0.22,0.296
	c0.086,0.343,0.321,0.413,0.628,0.23c-0.117,0.666,0.188,0.944,0.835,0.907c0.074,0.267,0.077,0.595,0.237,0.79
	c0.769,0.926,1.797,1.449,2.978,1.555c2.017,0.18,4.018,0.021,5.964-0.585c0.129-0.042,0.254-0.147,0.344-0.254
	c0.081-0.1,0.18-0.261,0.151-0.358c-0.07-0.25-0.173-0.655-0.324-0.686c-0.553-0.105-1.15-0.192-1.697-0.096
	c-2.594,0.462-5.123-0.289-7.685-0.335C21.179,50.076,20.843,49.835,20.239,49.872z M40.185,56.944
	c0.425,0.091,0.464-0.112,0.127-0.104c-0.566,0.01,0.13-0.241-0.182,0.249c0.208-0.417,0.225-0.882-0.124-1.167
	c-1.363-1.119-2.358-2.511-3.187-4.044c-0.132-0.245-0.303-0.516-0.529-0.649c-0.214-0.126-0.528-0.119-0.795-0.105
	c-0.086,0.004-0.178,0.2-0.242,0.32c-0.284,0.529-0.345,1.096-0.203,1.672c0.368,1.486,1.241,2.624,2.629,3.24
	C38.451,56.696,39.34,56.77,40.185,56.944z M68.442,77.018c0.574-1.96,0.52-3.991,0.688-6c0.047-0.558,0.245-1.105,0.411-1.647
	c0.021-0.077,0.249-0.131,0.38-0.126c0.113,0.003,0.294,0.075,0.327,0.162c0.614,1.686-0.171,3.409,0.145,5.101
	c0.033,0.163,0.396,0.286,0.628,0.373c0.074,0.029,0.294-0.104,0.314-0.191c0.126-0.56,0.242-1.124,0.312-1.692
	c0.472-3.863,0.906-7.729,1.779-11.531c0.324-1.402,0.526-2.835,0.749-4.26c0.063-0.418,0.066-0.866-0.01-1.283
	c-0.045-0.244-0.247-0.557-0.465-0.66c-1.752-0.82-3.361-0.578-4.731,0.813c-0.281,0.286-0.561,0.712-0.583,1.091
	c-0.153,2.439-0.36,4.886-0.304,7.325c0.05,2.164,0.15,4.318-0.029,6.481c-0.166,2.019-0.163,4.036,0.489,5.988l-0.307-0.045
	L68.442,77.018z M43.663,19.372c-0.905-0.183-1.74-0.022-2.425,0.605c-0.531,0.485-1.047,1.002-1.489,1.568
	c-2.218,2.835-1.744,3.197,0.937,4.385c1.454,0.645,2.888,1.333,4.349,1.961c1.061,0.456,2.148,0.853,3.226,1.267
	c1.54,0.589,2.84,0.106,3.967-0.957c0.773-0.729,1.229-1.569,0.769-2.708c-0.267-0.662-0.318-1.41-0.565-2.083
	c-0.195-0.532-0.475-1.058-0.828-1.5c-0.729-0.913-1.649-1.607-2.727-2.088c-0.42-0.188-0.712,0.055-0.756,0.7
	c-0.01,0.142,0.042,0.288,0.032,0.43c-0.069,1.013-0.764,1.694-1.569,1.559c-0.144-0.024-0.292-0.037-0.428-0.079
	c-0.415-0.128-0.86-0.208-1.229-0.417c-0.492-0.28-1.098-0.573-1.33-1.028c-0.225-0.438-0.037-1.087-0.015-1.636
	c0.338-0.267,0.615-0.145,0.449,0.064C43.675,19.859,44.238,19.458,43.663,19.372z M33.749,79.792
	c-0.094,0.533-0.196,1.065-0.277,1.601c-0.057,0.381,0.09,0.556,0.37,0.447c0.056-0.022,0.046-0.257,0.036-0.39
	c-0.038-0.545-0.089-1.086-0.134-1.628c0.148-0.234,0.245-0.567,0.457-0.68c0.305-0.161,0.565,0.045,0.622,0.391
	c0.425,2.571,0.811,5.151,1.298,7.711c0.097,0.514,0.506,1.042,0.917,1.396c0.266,0.231,0.811,0.269,1.197,0.198
	c0.45-0.078,0.657-0.503,0.62-0.976c-0.133-1.734-0.179-3.481-0.438-5.197c-0.582-3.879-0.729-7.789-0.968-11.693
	c-0.141-2.314-0.268-4.631-0.48-6.938c-0.158-1.718,0.042-3.482-0.623-5.137c-1.315-1.134-2.612-2.288-3.953-3.39
	c-0.661-0.543-1.363-0.226-2.021,0.105c-0.667,0.334-0.912,0.734-0.811,1.365c0.371,2.285,0.786,4.564,1.12,6.855
	c0.709,4.869,1.378,9.743,2.06,14.616C32.829,79.093,33.271,79.443,33.749,79.792z M37.209,34.192
	c-1.877-0.082-3.621-0.086-5.349-0.249c-4.027-0.379-7.357,1.18-10.366,3.632c-0.961,0.783-1.342,1.846-1.078,3.116
	c0.136,0.653,0.667,1.142,1.163,0.883c1.557-0.818,3.229-1.265,4.924-1.674c1.011-0.242,1.97-0.217,2.997-0.024
	c3.721,0.698,7.248,2.053,10.842,3.159c2.128,0.655,4.222,0.88,6.414,0.764c1.641-0.089,3.087-0.455,4.392-1.559
	c0.871-0.733,1.982-1.195,3.014-1.72c1.881-0.958,3.213-2.458,4.212-4.26c0.341-0.617,0.6-1.358,0.625-2.053
	c0.057-1.598-0.158-3.155-0.983-4.608c-0.891-1.564-1.612-1.699-2.408-0.315c-0.803,1.398-1.844,2.605-3.006,3.699
	c-1.566,1.475-3.415,2.195-5.575,1.626c-1.854-0.487-3.72-0.504-5.61-0.429C39.97,34.237,38.519,34.192,37.209,34.192z
	 M65.588,69.36c0.176-2.503,0.397-5.538,0.594-8.575c0.054-0.863,0.044-1.732,0.036-2.6c-0.001-0.57-0.521-1.187-1.043-1.181
	c-2.206,0.032-4.314-0.388-6.344-1.248c-0.124-0.052-0.287-0.003-0.426-0.03c-0.358-0.068-0.554,0.076-0.591,0.455
	c-0.039,0.43-0.129,0.861-0.111,1.286c0.135,3.472,0.303,6.943,0.429,10.416c0.094,2.606,0.143,5.214,0.204,7.82
	c0.093,3.764,0.158,7.527,0.279,11.292c0.018,0.553,0.247,1.107,0.431,1.646c0.186,0.55-0.173-0.093,0.363,0.128
	c0.341,0.14,0.583,0.042,0.702-0.277c0.099-0.266,0.274-0.54,0.262-0.801c-0.205-3.646,0.47-7.22,0.841-10.817
	c0.027-0.271,0.18-0.526,0.269-0.79c0.104-0.314,0.186-0.244,0.44,0.065c0.499,0.601,0.576,1.305,0.561,2.012
	c-0.06,2.604-0.181,5.211-0.232,7.817c-0.012,0.56,0.119,1.14,0.289,1.677c0.064,0.202,0.411,0.394,0.655,0.437
	c0.255,0.045,0.643-0.007,0.792-0.176c0.269-0.309,0.533-0.722,0.57-1.111c0.276-3.027,0.542-6.058,0.722-9.094
	C65.438,75.109,65.477,72.5,65.588,69.36z M61.406,33.922c0.008-0.116-0.027,0.746-0.104,1.604
	c-0.025,0.282-0.124,0.573-0.252,0.826c-1.409,2.746-3.146,5.198-5.96,6.698c-1.148,0.613-2.283,1.253-3.415,1.896
	c-1.271,0.723-2.657,1.054-4.054,1.45c-1.723,0.488-3.441,0.306-5.153,0.493c-1.729,0.19-2.937,1.132-3.737,2.623
	c-0.285,0.531-0.325,1.184,0.069,1.643c0.841,0.983,1.747,1.917,2.689,2.806c0.539,0.508,1.275,0.703,2.017,0.631
	c1.582-0.156,3.164-0.318,4.736-0.561c1.285-0.197,2.556-0.492,3.693-1.195c1.841-1.142,3.672-2.3,5.549-3.387
	c3.071-1.783,4.723-4.53,5.649-7.865c0.932-3.355,0.436-6.589-0.586-9.804c-0.083-0.26-0.315-0.483-0.514-0.688
	c-0.089-0.09-0.274-0.13-0.408-0.119c-0.079,0.007-0.207,0.158-0.209,0.247C61.399,31.792,61.406,32.365,61.406,33.922z
	 M43.722,83.53c0.03-0.622-0.015-0.801,0.054-0.904c0.124-0.188,0.299-0.358,0.492-0.475c0.062-0.04,0.314,0.084,0.353,0.184
	c0.262,0.666,0.549,1.33,0.722,2.021c0.452,1.816,0.835,3.65,1.295,5.466c0.05,0.196,0.405,0.396,0.65,0.446
	c0.44,0.088,0.865-0.064,1.09-0.485c0.128-0.239,0.245-0.55,0.205-0.803c-0.737-4.715-1.107-9.458-1.389-14.219
	c-0.265-4.465-0.803-8.914-1.229-13.37c-0.071-0.772-0.598-1.351-1.31-1.505c-1.708-0.369-3.428-0.49-5.166-0.247
	c-0.269,0.038-0.743,0.671-0.722,0.978c0.03,0.429,0.009,0.871,0.109,1.284c0.823,3.384,1.232,6.813,1.208,10.302
	c-0.008,0.863,0.047,1.734,0.141,2.594c0.439,4.019,0.882,8.037,1.37,12.05c0.104,0.85,0.381,1.68,0.596,2.514
	c0.101,0.392,0.892,0.688,1.5,0.584c0.396-0.066,0.796-0.509,0.769-0.886c-0.047-0.718-0.077-1.44-0.181-2.15
	C44.095,85.624,43.857,84.349,43.722,83.53z M55.775,88.229c0.061-0.577,0.15-1.13,0.171-1.684
	c0.265-7.378,0.003-14.75-0.239-22.123c-0.076-2.312-0.215-4.62-0.327-6.929c-0.015-0.313-0.696-0.813-0.964-0.703
	c-0.937,0.38-1.868,0.768-2.803,1.155c-4.103,1.708-3.423,1.155-3.134,4.919c0.067,0.865,0.074,1.735,0.146,2.6
	c0.272,3.17,0.423,6.36,0.89,9.501c0.299,2.015,0.549,4.01,0.487,6.038c-0.079,2.638,0.593,5.151,1.219,7.673
	c0.066,0.27,0.225,0.559,0.431,0.74c0.194,0.174,0.499,0.258,0.769,0.309c0.353,0.067,0.953-0.377,0.949-0.693
	c-0.016-1.004,0.004-2.017-0.104-3.013c-0.173-1.577-0.455-3.142-0.649-4.719c-0.02-0.173,0.227-0.38,0.351-0.573
	c0.116,0.082,0.289,0.137,0.339,0.248c0.593,1.334,0.825,2.756,1.07,4.187c0.168,0.984,0.586,1.928,0.919,2.879
	C55.323,88.127,55.546,88.145,55.775,88.229z M80.67,43.49c-0.129-0.541-0.181-1.455-0.56-2.206
	c-1.035-2.067-2.17-4.089-3.344-6.084c-0.59-1.005-1.468-1.782-2.466-2.409c-1.715-1.076-3.416-2.182-5.142-3.244
	c-1.119-0.687-2.348-1.125-3.654-1.27c-0.237-0.027-0.5,0.168-0.747,0.259c0.066,0.127,0.104,0.299,0.21,0.376
	c1.985,1.441,4.026,2.783,5.297,5.015c1.223,2.146,2.309,4.341,3.063,6.688c0.622,1.947,0.919,3.937,0.608,5.999
	c-0.173,1.141-0.213,2.302-0.297,3.456c-0.052,0.705,0.662,1.342,1.394,1.319c2.103-0.07,3.531-1.241,4.469-2.97
	C80.26,47.012,80.519,45.412,80.67,43.49z M30.081,80.865c-0.02,0.001-0.037,0.004-0.057,0.005c-0.133-1.58-0.172-3.178-0.42-4.741
	c-0.793-4.99-1.27-10.008-1.512-15.053c-0.069-1.445-0.243-2.869-0.822-4.223c-0.196-0.458-0.56-0.729-0.957-0.77
	c-1.139-0.119-2.292-0.151-3.438-0.18c-0.497-0.012-1.005,0.728-0.855,1.245c0.959,3.328,1.559,6.731,2.201,10.128
	c0.053,0.281,0.16,0.555,0.255,0.826c0.866,2.459,1.309,5.019,1.854,7.556c0.579,2.677,1.13,5.36,1.708,8.039
	c0.089,0.421,0.248,0.826,0.388,1.233c0.09,0.266,1.327,0.673,1.584,0.476c0.2-0.151,0.427-0.449,0.415-0.668
	C30.348,83.445,30.202,82.156,30.081,80.865z M26.136,48.567c3.472,0.175,6.578-0.92,9.592-2.398
	c0.329-0.161,0.471-0.349,0.368-0.625c-0.048-0.13-0.094-0.308-0.195-0.362c-2.312-1.248-4.881-1.726-7.38-2.406
	c-0.534-0.145-1.165-0.084-1.719,0.032c-1.268,0.267-2.531,0.581-3.768,0.964c-1.008,0.313-1.902,0.917-1.97,2.064
	c-0.056,0.941,0.738,1.512,1.397,2.076c0.567,0.486,1.226,0.756,1.984,0.731C25.022,48.625,25.602,48.541,26.136,48.567z
	 M69.038,42.17c-0.026-3.533-0.798-6.104-2.271-8.459c-0.104-0.167-0.539-0.258-0.757-0.187c-0.19,0.063-0.41,0.399-0.415,0.618
	c-0.013,1.001,0.032,2.005,0.079,3.007c0.116,2.479-0.281,4.876-1.23,7.159c-0.552,1.323-1.246,2.583-1.876,3.872
	c-0.314,0.64,0.217,1.471,0.974,1.528c0.286,0.021,0.583,0.107,0.853,0.055c0.561-0.107,1.107-0.29,1.661-0.44
	c1.221-0.333,2.017-1.102,2.236-2.353C68.611,45.136,68.868,43.29,69.038,42.17z M39.103,32.028
	c1.416,0.262,3.272-0.137,5.133-0.385c0.128-0.018,0.351-0.177,0.339-0.236c-0.042-0.24-0.099-0.601-0.26-0.675
	c-2.242-1.018-4.499-2.003-6.759-2.978c-0.258-0.112-0.57-0.178-0.845-0.153c-2.184,0.201-4.332,0.536-5.982,2.185
	c-0.186,0.183-0.388,0.593-0.304,0.754c0.183,0.352,0.507,0.671,0.847,0.891c0.216,0.141,0.562,0.089,0.851,0.11
	C34.289,31.693,36.455,31.844,39.103,32.028z M64.635,54.174c0.702-0.094,1.562-0.187,2.414-0.328
	c0.744-0.121,1.35-0.519,1.757-1.146c0.476-0.725,0.846-1.515,1.343-2.222c1.048-1.488,1.403-3.136,1.277-4.917
	c-0.009-0.138-0.089-0.273-0.133-0.408c-0.195,0.146-0.465,0.252-0.566,0.446c-0.27,0.506-0.481,1.045-0.692,1.582
	c-0.901,2.322-2.548,3.762-4.985,4.356c-0.867,0.212-1.692,0.26-2.555,0.079c-0.545-0.115-1.105-0.211-1.656-0.196
	c-0.174,0.005-0.415,0.378-0.481,0.62c-0.067,0.248-0.052,0.695,0.096,0.795C61.666,53.639,63.01,54.088,64.635,54.174z
	 M45.795,57.678c0.635-0.049,1.518,0.02,2.232-0.602c0.106-0.092,0.208-0.207,0.27-0.332c0.128-0.267-0.015-0.452-0.396-0.466
	c-1.159-0.044-2.309-0.015-3.369,0.544c-0.116,0.061-0.195,0.195-0.292,0.295c0.158,0.147,0.294,0.359,0.482,0.426
	C44.987,57.639,45.289,57.623,45.795,57.678z M70.215,83.841c0.332-2.218,0.529-3.407,0.67-4.604
	c0.02-0.176-0.237-0.383-0.365-0.576c-0.102,0.092-0.292,0.181-0.292,0.272C70.207,80.219,70.215,81.505,70.215,83.841z
	 M63.72,7.058c0.123-0.311,0.024-0.559-0.302-0.578c-0.232-0.015-0.475,0.126-0.71,0.198c0.122,0.205,0.203,0.469,0.379,0.602
	C63.337,7.466,63.582,7.345,63.72,7.058z"/>
</svg>
