<?xml version="1.0" encoding="utf-8"?>
<!-- Generator: Adobe Illustrator 16.0.0, SVG Export Plug-In . SVG Version: 6.00 Build 0)  -->
<!DOCTYPE svg PUBLIC "-//W3C//DTD SVG 1.1//EN" "http://www.w3.org/Graphics/SVG/1.1/DTD/svg11.dtd">
<svg version="1.1" id="Layer_1" xmlns="http://www.w3.org/2000/svg" xmlns:xlink="http://www.w3.org/1999/xlink" x="0px" y="0px"
	 width="706.691px" height="140.718px" viewBox="0 0 706.691 140.718" enable-background="new 0 0 706.691 140.718"
	 xml:space="preserve">
<g>
	<g>
		<path fill="#FFFFFF" d="M67.886,76.886c-10.526,2.952-21.005,6.005-31.47,9.166c-1.777-5.773-2.666-8.66-4.443-14.433
			c11.164-3.369,22.343-6.613,33.575-9.748c-1.444-5.286-2.165-7.931-3.607-13.217c-16.863,4.699-33.604,9.7-50.279,15.024
			c7.197,22.161,14.4,44.32,21.599,66.479c6.088-1.978,9.138-2.941,15.248-4.823c-3.225-10.475-4.837-15.714-8.063-26.189
			c10.332-3.12,20.677-6.134,31.068-9.047C70.063,84.814,69.337,82.17,67.886,76.886z M138.363,30.685
			c-6.654,1.316-9.976,1.999-16.614,3.419c2.687,12.583,5.381,25.166,8.071,37.748c1.171,5.476,0.782,10.074-1.13,13.8
			c-1.912,3.727-5.067,6.076-9.496,7.089s-8.312,0.273-11.69-2.243c-3.378-2.515-5.747-6.482-7.072-11.923
			c-3.049-12.5-6.095-25.002-9.141-37.503c-6.605,1.61-9.903,2.44-16.489,4.153c3.279,12.614,6.56,25.229,9.842,37.842
			c2.534,9.743,7.335,16.507,14.285,20.396c6.949,3.89,14.688,4.811,23.363,2.826c8.675-1.983,15.218-6.15,19.746-12.634
			c4.526-6.481,5.881-14.673,3.914-24.614C143.42,56.256,140.894,43.47,138.363,30.685z M181.488,79.764
			c-3.046-18.417-6.093-36.834-9.142-55.251c-6.683,1.105-10.02,1.685-16.688,2.894c4.155,22.927,8.311,45.853,12.467,68.78
			c15.162-2.653,30.333-5.056,45.573-7.214c-0.746-5.51-1.119-8.264-1.865-13.773C201.695,76.571,191.579,78.094,181.488,79.764z
			 M239.404,71.837c-2.013-18.558-4.027-37.116-6.041-55.674c-6.722,0.729-10.08,1.12-16.792,1.953
			c2.869,23.123,5.738,46.246,8.606,69.369c15.259-1.802,30.513-3.348,45.822-4.649c-0.438-5.542-0.656-8.313-1.094-13.855
			C259.725,69.783,249.557,70.736,239.404,71.837z M354.925,45.038c-3.831-3.275-9.26-5.724-16.273-7.269
			c-7.015-1.545-11.527-2.846-13.498-3.996c-1.971-1.151-2.989-2.737-3.046-4.77c-0.056-2.032,0.696-3.688,2.267-4.962
			c1.57-1.273,3.751-1.944,6.533-1.999c6.917-0.135,13.667,2.099,20.124,6.691c3.354-4.563,5.051-6.84,8.477-11.377
			c-3.706-2.958-8.093-5.234-13.146-6.808c-5.055-1.573-10.126-2.311-15.181-2.214c-7.729,0.147-14.135,2.149-19.139,5.935
			c-5.006,3.786-7.325,9.018-7.035,15.645c0.289,6.628,2.492,11.397,6.559,14.344c4.066,2.947,10.405,5.213,18.87,7
			c5.353,1.129,8.954,2.368,10.764,3.583c1.811,1.214,2.721,2.875,2.737,4.975s-0.813,3.773-2.479,5.023
			c-1.667,1.251-3.965,1.896-6.906,1.945c-6.566,0.111-13.764-3.007-21.81-9.311c-3.68,4.701-5.5,7.059-9.096,11.792
			c9.934,6.58,18.456,11.538,30.835,11.321c7.759-0.135,13.998-2.108,18.787-6.003c4.79-3.896,7.251-8.95,7.301-15.217
			C360.621,53.101,358.755,48.313,354.925,45.038z M426.978,18.535c-4.979-4.516-13.311-7.151-24.914-7.676
			c-10.682-0.483-16.025-0.66-26.713-0.884c-0.489,23.295-0.975,46.59-1.466,69.885c6.322,0.133,9.483,0.223,15.804,0.452
			c0.282-7.795,0.425-11.693,0.707-19.488c3.839,0.139,5.76,0.218,9.598,0.393c10.66,0.484,18.685-1.001,24.175-4.636
			c5.489-3.635,8.602-9.725,9.253-18.335C434.071,29.638,431.956,23.052,426.978,18.535z M416.592,36.207
			c-0.241,4.027-1.408,7.027-3.482,9.012c-2.075,1.985-5.818,2.824-11.252,2.571c-4.388-0.205-6.583-0.295-10.973-0.454
			c0.341-9.394,0.513-14.092,0.854-23.486c3.803,0.138,5.704,0.215,9.506,0.387c5.481,0.247,9.48,1.316,11.977,3.159
			C415.716,29.238,416.833,32.181,416.592,36.207z M483.929,16.016c-10.162-1.223-20.797,1.097-29.125,7.287
			c-7.875,5.854-12.7,14.956-13.494,24.652c-0.787,9.604,2.296,19.322,8.662,26.62c6.449,7.395,15.694,11.966,25.349,13.124
			c9.657,1.159,19.726-1.096,27.749-6.743c7.921-5.576,13.229-14.289,14.74-23.809c1.525-9.61-1.012-19.603-7.287-27.149
			C503.886,22.015,494.098,17.239,483.929,16.016z M501.275,54.734c-0.87,6.173-3.684,11.124-8.368,14.896
			c-4.686,3.773-9.964,5.289-15.916,4.573c-5.953-0.716-10.721-3.438-14.375-8.214c-3.653-4.775-5.212-10.251-4.594-16.455
			c0.617-6.202,3.236-11.29,7.935-15.219c4.698-3.929,10.195-5.538,16.404-4.791c6.208,0.746,11.169,3.61,14.806,8.542
			C500.805,42.997,502.146,48.562,501.275,54.734z M572.537,30.337c-10.051-2.047-20.869-0.607-29.703,4.882
			c-8.339,5.182-13.896,13.864-15.478,23.471c-1.567,9.516,0.731,19.455,6.5,27.241c5.854,7.901,14.725,13.21,24.275,15.153
			c9.558,1.945,19.805,0.528,28.295-4.444c8.366-4.899,14.387-13.146,16.672-22.521c2.307-9.467,0.565-19.633-5.097-27.662
			C592.001,37.948,582.6,32.386,572.537,30.337z M586.754,70.354c-1.369,6.082-4.585,10.786-9.574,14.162
			c-4.991,3.377-10.394,4.453-16.287,3.253c-5.895-1.201-10.438-4.304-13.704-9.362s-4.381-10.644-3.262-16.777
			c1.119-6.132,4.15-10.991,9.165-14.522c5.015-3.532,10.636-4.685,16.783-3.433c6.146,1.252,10.877,4.515,14.116,9.729
			C587.23,58.616,588.123,64.273,586.754,70.354z M676.565,58.528c-4.414,14.335-8.829,28.67-13.24,43.006
			c-7.223-17.978-14.801-35.758-22.759-53.423c-6.151-1.667-9.233-2.479-15.403-4.056c-5.768,22.575-11.537,45.15-17.31,67.724
			c6.174,1.578,9.256,2.392,15.411,4.066c3.834-14.088,7.668-28.177,11.501-42.267c7.433,17.12,14.503,34.347,21.23,51.755
			c6.11,1.882,9.161,2.847,15.249,4.824c7.199-22.159,14.399-44.319,21.6-66.479C686.345,61.566,683.09,60.537,676.565,58.528z"/>
	</g>
</g>
</svg>
