<?xml version="1.0" encoding="utf-8"?>
<!-- Generator: Adobe Illustrator 16.0.0, SVG Export Plug-In . SVG Version: 6.00 Build 0)  -->
<!DOCTYPE svg PUBLIC "-//W3C//DTD SVG 1.1//EN" "http://www.w3.org/Graphics/SVG/1.1/DTD/svg11.dtd">
<svg version="1.1" id="Layer_1" xmlns="http://www.w3.org/2000/svg" xmlns:xlink="http://www.w3.org/1999/xlink" x="0px" y="0px"
	 width="100px" height="100px" viewBox="0 0 100 100" enable-background="new 0 0 100 100" xml:space="preserve">
<g>
	<path fill-rule="evenodd" clip-rule="evenodd" fill="#F8BE39" d="M51.036,95.16c0-0.035,0-0.071,0-0.104
		c1.011,0,2.022,0.032,3.032-0.007c3.037-0.119,6.032-0.567,9.04-1.003c2.655-0.388,5.122-1.142,7.424-2.472
		c0.88-0.508,1.782-0.919,2.757-1.236c0.95-0.308,1.896-0.749,2.714-1.318c1.823-1.271,3.541-2.677,5.04-4.343
		c2.103-2.333,4.059-4.783,5.932-7.301c1.155-1.553,2.084-3.241,2.723-5.062c0.972-2.762,1.714-5.598,2.684-8.363
		c0.433-1.228,0.545-2.565,0.819-3.849c0.511-2.381,0.88-4.775,0.842-7.22c-0.026-1.62,0.014-3.24-0.043-4.858
		c-0.102-2.837-0.453-5.626-1.329-8.357c-1.023-3.191-2.387-6.228-3.81-9.25c-0.955-2.027-2.116-3.917-3.471-5.688
		c-1.228-1.608-2.452-3.225-3.763-4.766c-0.913-1.073-1.942-2.054-2.967-3.024c-0.733-0.691-1.574-1.269-2.315-1.95
		c-1.196-1.101-2.479-2.072-3.846-2.951c-1.36-0.869-2.591-1.962-4.009-2.712c-1.421-0.749-3.003-1.192-4.513-1.774
		c-0.377-0.145-0.739-0.334-1.125-0.455c-1.832-0.574-3.631-1.326-5.507-1.66c-5.82-1.034-11.673-1.166-17.51-0.045
		c-1.792,0.344-3.558,0.799-5.198,1.623c-0.248,0.125-0.546,0.375-0.6,0.616C33.87,8.375,33.46,8.498,32.744,8.53
		c-0.673,0.031-1.357,0.354-1.99,0.647c-2.298,1.063-4.411,2.461-6.619,3.689c-0.794,0.439-1.507,0.982-2.222,1.551
		c-1.354,1.077-2.54,2.308-3.787,3.488c-2.439,2.31-4.485,4.944-6.49,7.609c-1.338,1.781-2.509,3.677-3.215,5.82
		c-0.222,0.671-0.497,1.327-0.786,1.973c-1.969,4.389-3.04,8.994-3.359,13.784c-0.082,1.21-0.18,2.423-0.201,3.637
		c-0.06,3.441-0.117,6.887,0.887,10.237c0.175,0.581,0.404,1.147,0.535,1.736c0.265,1.183,0.382,2.408,0.742,3.558
		c0.358,1.151,1.02,2.206,1.399,3.352c0.609,1.834,1.481,3.541,2.303,5.277c0.877,1.855,2.075,3.467,3.45,4.962
		c0.753,0.82,1.563,1.59,2.297,2.424c1.503,1.716,3.682,2.47,5.421,3.852c0.705,0.558,1.562,0.928,2.355,1.374
		c0.174,0.097,0.366,0.188,0.561,0.226c1.834,0.346,3.379,1.33,4.928,2.279c1.475,0.902,2.991,1.692,4.651,2.197
		c0.481,0.147,0.958,0.331,1.415,0.548c1.476,0.704,3.079,0.983,4.634,1.425c1.556,0.439,3.17,0.565,4.734,1.005
		c1.577,0.444,3.219,0.082,4.833-0.014C49.822,95.131,50.43,95.16,51.036,95.16z M36.987,81.705
		c-0.593,1.276-1.061,2.599-2.011,3.712c-1.872,2.192-4.108,2.772-6.779,1.573c-1.015-0.456-2.046-0.899-2.997-1.471
		c-1.907-1.151-3.764-2.384-5.639-3.584c-0.169-0.109-0.35-0.218-0.486-0.363c-0.76-0.81-1.678-1.534-2.227-2.474
		c-0.915-1.566-2.336-2.772-2.948-4.571c-0.462-1.363-0.364-2.587,0.188-3.817c0.506-1.124,1.304-2.016,2.348-2.722
		c2.269-1.533,4.596-2.959,7.024-4.226c0.355-0.186,0.713-0.381,1.039-0.615c0.106-0.076,0.127-0.285,0.161-0.439
		c0.003-0.016-0.18-0.121-0.255-0.102c-0.585,0.156-1.198,0.264-1.741,0.516c-1.671,0.776-3.475,1.09-5.237,1.529
		c-1.781,0.442-3.611,0.483-5.431,0.146c-0.498-0.092-0.995-0.343-1.479-0.312c-1.977,0.124-3.014-1.134-3.678-2.647
		c-0.894-2.042-1.401-4.157-1.094-6.49c0.449-3.425,1.313-6.745,2.164-10.07c0.297-1.163,0.896-2.251,1.4-3.356
		c0.654-1.433,1.705-2.495,3.148-3.154c0.271-0.125,0.555-0.251,0.777-0.443c0.126-0.108,0.245-0.401,0.185-0.519
		c-0.502-0.992-1.068-1.951-1.572-2.939c-0.63-1.238-0.632-2.554-0.288-3.854c0.309-1.169,0.71-2.318,1.123-3.458
		c0.24-0.663,0.489-1.355,0.891-1.924c1.226-1.728,2.263-3.594,3.815-5.087c0.725-0.697,1.4-1.476,1.948-2.317
		c0.801-1.229,1.883-2.123,3.107-2.837c1.919-1.117,3.92-1.025,5.761,0.122c1.622,1.012,3.289,2.006,4.574,3.482
		c0.105,0.122,0.369,0.21,0.508,0.165c0.127-0.042,0.269-0.294,0.26-0.447c-0.047-0.911-0.197-1.818-0.195-2.727
		c0.003-1.005,0.042-2.03,0.23-3.014c0.316-1.665,1.147-3.015,2.77-3.75c0.185-0.082,0.364-0.174,0.542-0.272
		c0.708-0.385,1.139-1.189,1.983-1.356c0.692-0.137,1.405-0.178,2.095-0.327c1.885-0.41,3.791-0.624,5.72-0.649
		c0.404-0.005,0.844-0.116,1.205,0.007c1.373,0.467,2.807,0.308,4.206,0.475c2.149,0.253,4.116,0.985,6.012,1.963
		c0.629,0.325,1.198,0.863,1.858,1.014c1.914,0.437,2.671,2.057,3.652,3.411c0.658,0.907,0.897,2.027,0.661,3.19
		c-0.142,0.693-0.278,1.392-0.36,2.095c-0.046,0.391,0.028,0.796,0.049,1.191c0-0.001-0.197,0.083-0.197,0.083l0.138-0.009
		c0.441-0.555,1.048-1.044,1.289-1.675c0.485-1.275,1.552-1.789,2.608-2.359c0.259-0.141,0.571-0.237,0.864-0.255
		c1.109-0.077,2.222-0.176,3.332-0.15c1.602,0.036,2.94,0.767,4.008,1.912c1.171,1.259,2.325,2.547,3.357,3.918
		c0.976,1.296,1.995,2.538,3.113,3.714c1.717,1.808,2.716,4.05,3.198,6.441c0.361,1.79,0.219,3.641-0.899,5.254
		c-0.159,0.229,0.017,0.614,0.283,0.726c0.28,0.118,0.549,0.289,0.84,0.342c2.264,0.411,3.475,2.047,4.275,3.945
		c1.235,2.924,1.781,6.027,1.468,9.207c-0.19,1.91-0.545,3.81-0.91,5.697c-0.211,1.089-0.519,2.171-0.912,3.207
		c-0.596,1.566-1.643,2.742-3.215,3.464c-2.106,0.968-4.256,1.209-6.508,0.693c-0.584-0.133-1.188-0.195-1.784-0.273
		c-0.078-0.011-0.209,0.058-0.243,0.126c-0.039,0.079-0.036,0.238,0.021,0.292c0.728,0.697,1.46,1.388,2.21,2.063
		c0.6,0.542,1.248,1.031,1.834,1.586c0.675,0.636,1.169,1.365,1.21,2.365c0.019,0.491,0.31,0.968,0.361,1.464
		c0.061,0.597,0.135,1.246-0.033,1.802c-0.673,2.227-1.357,4.444-3.111,6.158c-1.01,0.987-1.839,2.156-2.768,3.228
		c-1.069,1.238-2.318,2.255-3.76,3.041c-0.71,0.387-1.37,0.869-2.082,1.246c-0.803,0.426-1.624,0.826-2.468,1.158
		c-0.769,0.302-1.558,0.267-2.377,0.027c-2.091-0.611-3.903-1.634-5.346-3.289c-0.153-0.178-0.399-0.111-0.49,0.13
		c-0.422,1.135-0.363,2.437-1.067,3.458c-0.628,0.911-1.41,1.716-2.108,2.58c-0.395,0.486-0.872,0.816-1.482,0.991
		c-1.269,0.361-2.536,0.643-3.878,0.623c-2.021-0.027-4.027,0.099-6.029-0.456c-1.045-0.289-2.223-0.054-3.321-0.2
		c-2.332-0.312-4.227-1.34-5.178-3.632c-0.387-0.933-0.666-1.905-0.779-2.926c-0.145-1.308-0.364-2.604-0.556-3.9
		c0.181-0.057,0.208-0.038,0.08,0.066C36.97,81.798,36.979,81.753,36.987,81.705z M36.354,56.819l0.114,0.058
		c0,0-0.177,0.02-0.169,0.017l0.028,0.129L36.354,56.819z M40.695,88.005c0.021,0.199-0.016,0.428,0.073,0.591
		c0.681,1.247,1.694,1.987,3.167,1.949c0.809-0.022,1.617-0.068,2.425-0.116c1.117-0.068,2.224-0.073,3.291,0.353
		c0.98,0.389,2.026,0.324,2.995,0.1c1.472-0.339,2.913-0.837,4.335-1.356c0.445-0.163,0.832-0.566,1.165-0.935
		c0.556-0.614,0.828-1.366,0.907-2.204c0.205-2.146-0.063-4.243-0.697-6.291c-0.419-1.354-0.933-2.674-1.354-4.025
		c-1.754-5.635-4.442-10.844-7.254-15.997c-0.145-0.265-0.31-0.525-0.503-0.756c-0.192-0.232-0.42-0.436-0.649-0.631
		c-0.699-0.599-1.661-0.493-2.099,0.256c-1.595,2.728-2.65,5.675-3.401,8.727c-0.556,2.256-1.115,4.51-1.874,6.707
		c-0.863,2.502-1.319,5.083-1.673,7.689c-0.177,1.306-0.175,2.628,0.061,3.931c0.049,0.266,0.304,0.493,0.464,0.74
		C40.212,87.193,40.046,87.798,40.695,88.005z M38.695,33.181l0.092,0.098c0.066-0.521-0.041-1.004-0.301-1.457
		c-0.853-1.492-1.701-2.986-2.558-4.478c-0.352-0.612-0.79-1.184-0.871-1.917c-0.141-1.287-0.858-2.227-1.78-3.075
		c-0.668-0.615-1.235-1.339-1.9-1.959c-0.738-0.688-1.527-1.323-2.308-1.964c-0.41-0.337-0.91-0.463-1.423-0.35
		c-0.586,0.131-1.198,0.246-1.729,0.507c-1.269,0.625-2.494,1.337-3.744,2.001c-1.27,0.675-2.311,1.632-3.263,2.68
		c-1.157,1.272-2.115,2.7-3.123,4.094c-1.226,1.695-1.786,3.611-2.313,5.562c-0.099,0.364-0.049,0.823,0.083,1.183
		c0.244,0.66,0.571,1.295,0.92,1.906c0.31,0.543,0.802,0.892,1.42,1.062c0.876,0.24,1.745,0.514,2.623,0.75
		c2.44,0.652,4.768,1.646,7.223,2.271c2.148,0.546,4.25,1.292,6.336,2.05c1.61,0.585,3.19,1.271,4.735,2.012
		c1.207,0.58,2.529,0.651,3.774,1.05c0.626,0.199,1.479-0.445,1.624-1.071c0.379-1.632,0.25-3.268-0.36-4.775
		C40.984,37.22,40.186,35.016,38.695,33.181z M40.099,51.886c-0.266,0.133-0.521,0.344-0.802,0.389
		c-0.521,0.08-0.936-0.146-0.919-0.512c0.015-0.342,0.146-0.594,0.436-0.716c0.369-0.154,0.764-0.245,1.146-0.365
		c0.275-0.086,0.404-0.526,0.212-0.728c-0.273-0.289-0.541-0.593-0.852-0.835c-2.418-1.902-5.306-2.923-8.076-4.125
		c-2.214-0.963-4.585-1.558-6.879-2.339c-3.401-1.16-6.908-1.458-10.472-1.359c-0.966,0.026-1.75,0.4-2.46,1.023
		c-0.875,0.768-1.396,1.734-1.594,2.861c-0.509,2.882-1.191,5.726-1.527,8.646c-0.23,1.991,0.049,3.812,0.791,5.621
		c0.875,2.138,2.896,3.529,5.177,3.54c1.531,0.009,3.024-0.267,4.498-0.637c5.33-1.346,10.32-3.526,15.096-6.215
		c1.759-0.99,3.398-2.187,5.264-2.996c0.481-0.207,0.719-0.687,0.843-1.177c0.211-0.022,0.139,0.113,0.065,0.055
		C39.735,51.763,39.932,52.255,40.099,51.886z M69.551,57.964l-0.05-0.06c1.186,0.796,2.498,1.323,3.852,1.728
		c2.612,0.779,5.232,1.542,7.863,2.249c0.87,0.232,1.791,0.294,2.691,0.402c0.845,0.102,1.593-0.194,2.277-0.667
		c0.951-0.656,1.598-1.55,1.946-2.636c0.247-0.768,0.448-1.56,0.57-2.356c0.399-2.597,0.577-5.223,0.607-7.845
		c0.032-2.833-1.086-5.309-2.852-7.502c-0.403-0.5-0.933-0.751-1.544-0.879c-1.012-0.215-2.02-0.143-3.005,0.11
		c-2.146,0.553-4.4,0.557-6.502,1.369c-0.737,0.284-1.587,0.281-2.388,0.394c-2.313,0.324-4.56,0.964-6.726,1.78
		c-3.304,1.245-6.524,2.712-9.777,4.094c-0.571,0.241-1.006,0.657-1.354,1.174c-0.218,0.326-0.222,0.843,0.021,1.125
		c0.065,0.078,0.1,0.183,0.17,0.25c1.254,1.191,2.599,2.251,4.227,2.891c1.878,0.741,3.656,1.704,5.538,2.452
		C66.606,56.629,68.011,57.456,69.551,57.964z M48.98,9.52c-1.215,0.06-2.528,0.11-3.838,0.197
		c-2.575,0.169-4.844,1.309-7.159,2.293c-0.092,0.04-0.172,0.11-0.247,0.176c-1.255,1.115-2.223,2.356-1.952,4.19
		c0.118,0.8,0.166,1.608,0.279,2.407c0.272,1.908,0.775,3.761,1.317,5.607c0.257,0.876,0.575,1.703,1.014,2.513
		c1.396,2.578,2.859,5.13,3.886,7.882c0.671,1.798,1.652,3.465,2.165,5.33c0.128,0.467,0.473,0.889,0.768,1.293
		c0.476,0.653,0.992,1.277,1.494,1.91c0.17,0.215,0.639,0.268,0.801,0.072c0.58-0.697,1.182-1.378,1.71-2.115
		c0.434-0.604,0.976-1.003,1.675-1.219c0.287-0.089,0.584-0.17,0.833-0.327c0.143-0.091,0.311-0.359,0.273-0.49
		c-0.258-0.879-0.015-1.582,0.646-2.171c1.071-0.951,1.851-2.129,2.606-3.327c0.484-0.771,0.938-1.564,1.473-2.296
		c1.277-1.75,1.971-3.765,2.489-5.814c0.324-1.279,0.672-2.534,1.189-3.741c0.681-1.591,1.114-3.25,1.415-4.947
		c0.228-1.286-0.143-2.372-1.072-3.308c-1.608-1.621-3.564-2.628-5.701-3.328C53.106,9.672,51.089,9.603,48.98,9.52z M52.161,56.487
		c0.077,0.479,0.094,0.996,0.243,1.469c0.935,2.988,1.762,5.996,3.39,8.741c1.179,1.99,2.041,4.167,2.576,6.458
		c0.648,2.777,1.762,5.377,3.332,7.762c0.722,1.096,1.454,2.201,2.31,3.19c1.622,1.878,4.024,2.4,6.329,1.561
		c1.057-0.384,2.023-0.913,2.964-1.516c1.723-1.109,3.108-2.567,4.45-4.097c1.617-1.841,2.894-3.895,3.991-6.069
		c0.43-0.851,0.466-1.777,0.102-2.655c-0.588-1.41-1.325-2.731-2.616-3.65c-0.658-0.469-1.289-0.979-1.949-1.447
		c-2.724-1.929-5.58-3.634-8.532-5.208c-3.938-2.097-8.042-3.797-12.154-5.493c-0.746-0.307-1.524-0.546-2.305-0.75
		c-0.379-0.097-0.813-0.111-1.193-0.031c-0.256,0.053-0.558,0.293-0.669,0.53C52.261,55.634,52.246,56.058,52.161,56.487z
		 M71.858,17.4c-1.511-0.117-2.783,0.353-3.814,1.485c-3.283,3.611-6.127,7.553-8.374,11.872c-1.4,2.695-3.126,5.194-4.473,7.911
		c-0.54,1.09-1.295,2.042-1.988,3.039c-0.627,0.905-1.088,1.93-1.59,2.919c-0.188,0.371-0.191,0.815,0.065,1.152
		c0.252,0.33,0.642,0.487,1.077,0.384c1.18-0.282,2.357-0.57,3.531-0.875c0.19-0.048,0.35-0.199,0.53-0.287
		c0.281-0.141,0.309-0.398,0.063-0.729c-0.695-0.939-0.693-0.949,0.105-1.294c0.553-0.239,1.113-0.471,1.677-0.684
		c0.365-0.14,0.803,0.191,0.84,0.614c0.007,0.099-0.056,0.199-0.056,0.298c0.002,0.737,0.08,0.829,0.565,0.709
		c1.177-0.292,2.358-0.57,3.521-0.915c1.162-0.349,2.279-0.863,3.457-1.141c3.757-0.885,7.329-2.322,10.926-3.666
		c1.599-0.597,3.213-1.236,4.593-2.313c1.521-1.187,1.983-2.792,1.235-4.585c-0.586-1.4-1.214-2.781-1.813-4.175
		c-0.406-0.941-0.956-1.769-1.688-2.498c-0.645-0.64-1.339-1.291-1.768-2.072c-1.003-1.831-2.636-3.05-4.045-4.488
		c-0.364-0.371-0.842-0.553-1.362-0.594C72.667,17.434,72.263,17.421,71.858,17.4z M41.535,58.902
		c0.051-0.436,0.132-1.036,0.189-1.639c0.032-0.349-0.273-0.853-0.626-0.953c-0.479-0.139-0.975-0.233-1.47-0.301
		c-0.468-0.061-0.656,0.097-0.734,0.686c-0.054,0.406-0.051,0.847-0.402,1.094c-0.74,0.52-1.517,0.988-2.285,1.467
		c-0.283,0.177-0.783-0.065-0.956-0.456c-0.041-0.092-0.048-0.198-0.09-0.289c-0.12-0.264-0.217-0.647-0.613-0.415
		c-0.779,0.459-1.543,0.952-2.29,1.464c-1.499,1.029-2.984,2.078-4.472,3.124c-0.497,0.349-1.015,0.678-1.462,1.083
		c-0.838,0.755-1.807,1.281-2.795,1.803c-1.971,1.042-3.867,2.209-5.644,3.56c-0.401,0.307-0.803,0.623-1.148,0.988
		c-0.435,0.463-0.672,1.06-0.501,1.678c0.436,1.563,0.957,3.093,2.241,4.223c0.835,0.735,1.661,1.484,1.76,2.726
		c0.021,0.261,0.293,0.531,0.506,0.74c0.65,0.637,1.268,1.327,2.005,1.848c1.402,0.989,2.861,1.905,4.329,2.799
		c0.964,0.586,2.051,0.843,3.174,0.956c1.22,0.124,2.147-0.275,2.834-1.334c0.498-0.77,1.057-1.505,1.288-2.394
		c0.54-2.085,1.615-3.917,2.641-5.776c0.39-0.707,0.875-1.41,1.053-2.178c0.279-1.2,0.771-2.29,1.276-3.394
		c0.292-0.639,0.479-1.333,0.647-2.02c0.435-1.765,0.858-3.535,1.237-5.314C41.478,61.494,41.746,60.3,41.535,58.902z M54.142,48.17
		c-0.08-0.064-0.154-0.175-0.237-0.183c-1.503-0.147-2.675-0.822-3.464-2.129c-0.104-0.171-0.239-0.327-0.38-0.469
		c-0.302-0.302-0.668-0.489-1.087-0.322c-1.224,0.486-2.358,0.315-3.473-0.346c-0.381-0.225-0.878-0.099-1.05,0.269
		c-0.545,1.152-1.437,1.923-2.535,2.51c-0.316,0.169-0.305,0.573-0.004,1.038c0.898,1.382,1.11,2.779,0.114,4.212
		c-0.114,0.165-0.231,0.331-0.334,0.503c-0.207,0.351-0.148,0.93,0.188,1.057c1.494,0.561,2.117,1.76,2.478,3.185
		c0.021,0.088,0.124,0.155,0.3,0.358c0.621-0.614,1.438-0.923,2.229-1.289c0.583-0.271,1.154-0.321,1.766-0.182
		c0.196,0.044,0.396,0.077,0.597,0.103c0.756,0.089,0.898,0,1.059-0.67c0.095-0.388,0.122-0.805,0.274-1.168
		c0.284-0.672,0.738-1.183,1.517-1.346c0.586-0.121,1.159-0.318,1.731-0.5c0.278-0.089,0.444-0.478,0.325-0.728
		c-0.129-0.272-0.251-0.55-0.399-0.813c-0.502-0.893-0.417-1.729,0.202-2.54C54.068,48.576,54.083,48.355,54.142,48.17z
		 M52.32,32.706c-0.898,0.816-1.504,1.831-1.969,2.936c-0.112,0.268,0.154,0.984,0.425,1.027c0.277,0.042,0.594,0.014,0.853-0.088
		c0.27-0.104,0.504-0.318,0.733-0.51c0.762-0.636,1.055-1.428,0.74-2.399c-0.092-0.284-0.182-0.569-0.296-0.841
		c-0.032-0.083-0.148-0.128-0.228-0.19C52.491,32.661,52.377,32.653,52.32,32.706z M54.766,28.59
		c0.049,0.19,0.124,0.375,0.188,0.561c0.183-0.072,0.408-0.099,0.545-0.222c0.936-0.844,1.43-1.924,1.599-3.159
		c0.025-0.187-0.039-0.391-0.085-0.583c-0.019-0.092-0.075-0.212-0.147-0.245c-0.077-0.034-0.22-0.012-0.289,0.041
		c-0.979,0.774-1.582,1.779-1.813,3.005c-0.018,0.098-0.01,0.2-0.002,0.018C54.761,28.392,54.74,28.496,54.766,28.59z
		 M58.345,14.356c0.427,0.676,0.889,1.331,1.346,1.989c0.143,0.204,0.657,0.084,0.74-0.195c0.083-0.278,0.2-0.604,0.126-0.858
		c-0.265-0.926-0.842-1.598-1.833-1.793c-0.122-0.024-0.288,0.176-0.434,0.272C58.305,13.968,58.253,14.207,58.345,14.356z
		 M47.499,39.928c0.032,0.14,0.228,0.318,0.366,0.336c0.146,0.019,0.404-0.094,0.459-0.217c0.367-0.828,0.395-1.677,0.066-2.532
		c-0.088-0.229-0.236-0.344-0.457-0.24c-0.151,0.07-0.34,0.202-0.379,0.345c-0.104,0.37-0.135,0.762-0.194,1.132
		C47.403,39.159,47.416,39.552,47.499,39.928z M46.051,39.477c0.211-0.933-0.018-1.746-0.806-2.334
		c-0.083-0.062-0.457,0.063-0.479,0.152c-0.214,0.896-0.078,1.725,0.601,2.403c0.058,0.056,0.181,0.045,0.276,0.067
		C45.782,39.672,46.023,39.599,46.051,39.477z M56.011,17.989c0.004-0.081-0.105-0.242-0.151-0.236
		c-0.164,0.017-0.419,0.041-0.472,0.147c-0.448,0.886-0.848,1.797-0.701,2.833c0.014,0.093,0.103,0.257,0.13,0.251
		c0.162-0.032,0.36-0.061,0.468-0.169c0.54-0.538,0.452-1.282,0.644-2.099C55.947,18.577,55.997,18.283,56.011,17.989z
		 M50.814,28.527c0.096,0.139,0.229,0.258,0.368,0.354c0.037,0.026,0.201-0.048,0.23-0.111c0.336-0.709,0.826-1.382,0.608-2.238
		c-0.023-0.091-0.101-0.206-0.179-0.231c-0.079-0.025-0.195,0.031-0.281,0.077c-0.765,0.411-0.559,1.211-0.738,1.844
		C50.816,28.333,50.77,28.461,50.814,28.527z M39.021,21.631c-0.104-0.127-0.313-0.174-0.484-0.235
		c-0.02-0.007-0.135,0.153-0.145,0.242c-0.11,1.133,0.186,2.12,1.077,2.878c0.062,0.055,0.185,0.107,0.246,0.08
		c0.078-0.034,0.121-0.147,0.283-0.37C39.548,23.474,39.668,22.425,39.021,21.631z M42.242,29.328
		c-0.047-0.104-0.298-0.13-0.463-0.157c-0.042-0.009-0.165,0.127-0.152,0.171c0.122,0.456,0.256,0.907,0.408,1.354
		c0.023,0.072,0.146,0.111,0.225,0.167c0.083-0.152,0.166-0.303,0.294-0.536C42.468,30.033,42.393,29.664,42.242,29.328z
		 M42.567,24.893c0.036,0.125,0.27,0.206,0.427,0.272c0.031,0.014,0.185-0.129,0.186-0.201c0.007-0.479,0.005-0.96-0.028-1.439
		c-0.023-0.327-0.383-0.663-0.522-0.528c-0.128,0.123-0.195,0.312-0.34,0.558C42.368,23.953,42.434,24.433,42.567,24.893z
		 M73.676,66.523c-0.043,0.262-0.052,0.681,0.108,0.804c1.013,0.791,2.076,1.519,3.127,2.261c0.075,0.052,0.203,0.09,0.284,0.065
		c0.266-0.084,0.557-0.158,0.764-0.328c0.086-0.068,0.047-0.401-0.04-0.555c-0.767-1.376-1.966-2.187-3.466-2.588
		c-0.087-0.022-0.194,0.031-0.291,0.05C73.993,66.327,73.698,66.401,73.676,66.523z M55.156,62.3
		c0.065,0.075,0.144,0.193,0.219,0.196c0.282,0.014,0.584,0.036,0.846-0.044c0.148-0.044,0.339-0.285,0.337-0.435
		c-0.025-0.933-0.444-1.743-0.882-2.539c-0.046-0.083-0.15-0.183-0.23-0.186c-0.281-0.014-0.581-0.042-0.841,0.04
		c-0.147,0.045-0.231,0.292-0.417,0.551C54.508,60.639,54.526,61.579,55.156,62.3z M57.095,57.869
		c0.057-0.175,0.149-0.401,0.086-0.538c-0.351-0.739-0.96-1.202-1.712-1.499c-0.247-0.098-0.714-0.005-0.763,0.216
		c-0.058,0.261-0.12,0.599-0.004,0.806c0.467,0.838,1.282,1.122,2.168,1.227C56.96,57.999,57.07,57.946,57.095,57.869z
		 M58.978,67.814c0-0.932-0.424-1.671-1.077-2.299c-0.065-0.064-0.167-0.099-0.258-0.123c-0.079-0.021-0.186-0.035-0.245,0.003
		c-0.076,0.046-0.174,0.156-0.166,0.227c0.123,0.994,0.57,1.821,1.35,2.457c0.047,0.04,0.168-0.013,0.256-0.021
		C58.887,67.976,58.978,67.894,58.978,67.814z M79.689,74.552c0.045,0.265,0.212,0.258,0.458,0.135
		c0.627-0.314,0.768-0.872,0.812-1.483c0.036-0.513-0.079-0.988-0.509-1.327c-0.072-0.058-0.177-0.071-0.262-0.113
		c-0.234-0.119-0.421-0.068-0.478,0.178c-0.09,0.374-0.139,0.761-0.199,1.104C79.573,73.585,79.608,74.072,79.689,74.552z
		 M60.143,60.963c0.368,0.763,1.007,1.229,1.769,1.544c0.072,0.028,0.233,0.003,0.26-0.048c0.088-0.155,0.229-0.383,0.174-0.498
		c-0.356-0.74-0.855-1.361-1.623-1.724c-0.233-0.11-0.402-0.071-0.513,0.161c-0.041,0.085-0.062,0.181-0.092,0.271
		C60.125,60.768,60.104,60.879,60.143,60.963z M61.656,75.249c0.072-0.053,0.158-0.156,0.155-0.234
		c-0.04-0.816-0.359-1.519-0.935-2.1c-0.06-0.057-0.24-0.1-0.274-0.064c-0.115,0.124-0.296,0.316-0.263,0.427
		c0.169,0.565,0.375,1.124,0.616,1.664c0.066,0.152,0.298,0.231,0.454,0.343C61.493,75.274,61.596,75.291,61.656,75.249z
		 M69.028,63.075c0.012-0.181,0.033-0.42-0.065-0.539c-0.502-0.59-1.186-0.681-1.91-0.587c-0.091,0.013-0.196,0.083-0.248,0.158
		c-0.039,0.058-0.033,0.185,0.005,0.252c0.446,0.801,1.194,0.959,2.016,0.945C68.905,63.222,69.024,63.151,69.028,63.075z
		 M64.181,73.277c0.059,0.052,0.198,0.052,0.285,0.023c0.243-0.079,0.27-0.242,0.115-0.466c-0.335-0.485-0.657-0.98-1-1.459
		c-0.041-0.056-0.203-0.079-0.275-0.044c-0.074,0.034-0.108,0.158-0.163,0.245C63.153,72.345,63.66,72.818,64.181,73.277z
		 M66.251,80.068c-0.358-0.819-0.692-1.659-1.478-2.186c-0.038-0.025-0.161,0.026-0.208,0.075c-0.063,0.068-0.141,0.181-0.125,0.256
		c0.173,0.929,0.73,1.608,1.468,2.155c0.044,0.035,0.158-0.026,0.238-0.043C66.185,80.239,66.277,80.126,66.251,80.068z
		 M62.608,53.297c0.757,0.458,1.539,0.892,2.351,1.239c0.334,0.144,0.774,0.082,1.162,0.048c0.166-0.014,0.456-0.202,0.449-0.296
		c-0.018-0.269-0.081-0.669-0.264-0.769c-0.956-0.521-1.944-0.985-2.943-1.414c-0.244-0.106-0.586-0.052-0.861,0.018
		c-0.13,0.035-0.204,0.279-0.341,0.487C62.296,52.83,62.391,53.165,62.608,53.297z M78.349,42.679
		c-0.181,0.186-0.255,0.514-0.283,0.788c-0.009,0.082,0.29,0.253,0.468,0.288c1.14,0.218,2.136-0.081,2.979-0.885
		c0.184-0.174,0.083-0.654-0.173-0.743c-0.271-0.094-0.548-0.173-0.671-0.212C79.679,41.863,78.93,42.084,78.349,42.679z
		 M72.666,55.273c-0.181,0.06-0.461,0.113-0.501,0.236c-0.049,0.144,0.079,0.382,0.19,0.539c0.644,0.913,1.554,1.145,2.611,0.976
		c0.298-0.047,0.59-0.364,0.499-0.613c-0.063-0.178-0.111-0.412-0.247-0.506c-0.675-0.464-1.464-0.57-2.113-0.638
		C72.862,55.267,72.755,55.244,72.666,55.273z M81.888,60.518c0.746,0.343,1.504,0.485,2.235-0.015
		c0.136-0.093,0.254-0.331,0.243-0.49c-0.009-0.147-0.194-0.385-0.325-0.402c-0.79-0.101-1.554,0.017-2.243,0.45
		c-0.063,0.04-0.076,0.161-0.112,0.246C81.753,60.377,81.806,60.48,81.888,60.518z M59.475,51.059
		c0.003-0.678-0.363-1.168-0.993-1.305c-0.449-0.098-0.77,0.128-1.027,0.455c-0.222,0.281-0.083,0.737,0.342,0.994
		c0.33,0.199,0.702,0.329,0.722,0.339C59.162,51.643,59.474,51.343,59.475,51.059z M69.314,45.741
		c-0.686-0.288-1.328-0.227-1.89,0.289c-0.066,0.06-0.14,0.208-0.112,0.253c0.085,0.132,0.225,0.335,0.332,0.327
		c0.477-0.032,0.957-0.099,1.418-0.223c0.144-0.038,0.229-0.291,0.341-0.445C69.374,45.873,69.363,45.761,69.314,45.741z
		 M76.703,46.528c0.062-0.065,0.119-0.187,0.099-0.261c-0.021-0.075-0.13-0.142-0.216-0.181c-0.702-0.316-1.303-0.153-1.806,0.407
		c-0.059,0.066-0.116,0.23-0.085,0.262c0.123,0.125,0.28,0.214,0.499,0.369C75.675,46.966,76.272,46.981,76.703,46.528z
		 M69.49,57.89c0.259-0.281,0.535-0.544,0.8-0.814c0.208-0.214,0.181-0.638-0.063-0.754c-0.262-0.125-0.541-0.243-0.825-0.289
		c-0.161-0.026-0.401,0.048-0.503,0.166c-0.104,0.12-0.167,0.392-0.103,0.523c0.216,0.433,0.5,0.83,0.756,1.242
		C69.551,57.964,69.501,57.905,69.49,57.89z M67.451,38.138c-1.068,0.335-2.042,0.815-2.607,1.859
		c-0.047,0.088-0.081,0.183-0.121,0.273c0.18,0.068,0.387,0.229,0.533,0.184c1.141-0.344,2.271-0.723,3.401-1.102
		c0.244-0.081,0.329-0.591,0.124-0.764c-0.221-0.187-0.478-0.335-0.659-0.459C67.841,38.129,67.629,38.082,67.451,38.138z
		 M81.753,33.058c0.075,0.26,0.297,0.495,0.499,0.697c0.134,0.136,0.649-0.367,0.76-0.736c0.253-0.834,0.035-1.547-0.595-2.12
		c-0.107-0.099-0.354-0.065-0.535-0.05c-0.065,0.007-0.151,0.123-0.18,0.205c-0.063,0.182-0.096,0.372-0.17,0.687
		C81.587,32.101,81.62,32.593,81.753,33.058z M53.152,44.514c0.178,0.035,0.393,0.081,0.542,0.012
		c0.682-0.315,0.956-1.002,1.333-1.583c0.066-0.103-0.013-0.411-0.119-0.48c-0.129-0.084-0.393-0.082-0.537,0
		c-0.628,0.349-1.073,0.887-1.376,1.537c-0.038,0.082-0.005,0.197-0.005,0.305C53.039,44.374,53.085,44.502,53.152,44.514z
		 M57.989,37.347c0.923-0.527,1.521-1.293,1.652-2.37c0.009-0.072-0.098-0.184-0.178-0.233c-0.071-0.043-0.208-0.068-0.267-0.029
		c-0.882,0.579-1.36,1.392-1.386,2.455C57.873,37.232,57.97,37.359,57.989,37.347z M71.918,19.381
		c0.414,0.491,0.977,0.566,1.579,0.465c0.271-0.046,0.322-0.171,0.225-0.407c-0.248-0.599-0.749-0.851-1.326-1.014
		c-0.265-0.075-0.581,0.138-0.621,0.425C71.818,19.03,71.811,19.254,71.918,19.381z M75.278,37.388
		c-0.064,0.074-0.148,0.244-0.13,0.259c0.14,0.115,0.327,0.31,0.451,0.281c0.385-0.094,0.762-0.25,1.111-0.438
		c0.102-0.055,0.121-0.298,0.132-0.457c0.002-0.051-0.146-0.111-0.232-0.173C76.08,36.808,75.63,36.982,75.278,37.388z
		 M72.896,33.915c-0.685-0.136-1.11,0.235-1.442,0.762c-0.022,0.036,0.037,0.156,0.089,0.201c0.068,0.056,0.177,0.121,0.248,0.104
		c0.589-0.147,1.106-0.375,1.051-1.128L72.896,33.915z M77.114,33.866c-0.415-0.02-0.785,0.106-1.059,0.413
		c-0.093,0.104-0.076,0.306-0.108,0.463c0.083,0.014,0.195,0.069,0.25,0.034c0.381-0.238,0.994-0.287,0.858-0.979L77.114,33.866z
		 M77.057,33.799c0.169,0.029,0.348,0.102,0.503,0.067c0.106-0.024,0.18-0.198,0.269-0.305c-0.149-0.04-0.335-0.151-0.437-0.1
		c-0.129,0.065-0.189,0.264-0.278,0.405C77.114,33.866,77.054,33.797,77.057,33.799z M72.842,33.854
		c0.093,0.006,0.194,0.034,0.271,0.003c0.043-0.019,0.08-0.189,0.066-0.199c-0.184-0.104-0.281-0.011-0.283,0.257L72.842,33.854z
		 M30.176,48.786c-0.168,0.067-0.325,0.213-0.439,0.359c-0.169,0.215-0.089,0.382,0.18,0.462c0.675,0.208,1.34,0.45,2.026,0.608
		c0.273,0.063,0.591-0.05,0.883-0.105c0.064-0.012,0.149-0.111,0.158-0.178c0.012-0.095-0.013-0.213-0.066-0.292
		c-0.52-0.755-1.357-0.782-2.114-0.928C30.572,48.735,30.356,48.715,30.176,48.786z M14.765,61.27
		c0.16-0.062,0.377-0.197,0.401-0.329c0.028-0.157-0.074-0.438-0.205-0.509c-0.596-0.321-1.219-0.598-1.839-0.875
		c-0.237-0.106-0.702,0.107-0.722,0.328c-0.015,0.182-0.019,0.396,0.063,0.55c0.357,0.693,1.004,0.878,1.732,0.906
		C14.381,61.321,14.589,61.336,14.765,61.27z M28.181,56.276c-0.151,0.117-0.303,0.302-0.339,0.479
		c-0.036,0.168,0.065,0.375,0.137,0.552c0.035,0.086,0.148,0.208,0.211,0.2c1.017-0.147,1.932-0.53,2.657-1.274
		c0.098-0.099,0.099-0.396,0.021-0.532c-0.083-0.144-0.313-0.204-0.498-0.313C29.574,55.495,28.83,55.776,28.181,56.276z
		 M15.384,43.942c0.031-0.017-0.033-0.378-0.143-0.458c-0.8-0.591-2.006-0.178-2.45,0.823c-0.037,0.082-0.031,0.232,0.021,0.291
		c0.116,0.132,0.273,0.228,0.495,0.402C13.978,44.667,14.688,44.321,15.384,43.942z M29.12,46.893
		c0.14-0.098,0.268-0.228,0.359-0.371c0.042-0.063,0.019-0.218-0.036-0.282c-0.715-0.833-1.604-1.053-2.636-0.699
		c-0.071,0.025-0.146,0.125-0.161,0.201c-0.017,0.089,0,0.218,0.054,0.283c0.557,0.66,1.391,0.654,2.131,0.877
		C28.929,46.901,29.054,46.939,29.12,46.893z M23.932,47.881c0.139-0.062,0.249-0.226,0.328-0.368
		c0.031-0.055-0.033-0.2-0.096-0.264c-0.683-0.686-1.548-0.731-2.433-0.632c-0.119,0.011-0.286,0.266-0.291,0.413
		c-0.005,0.157,0.121,0.414,0.253,0.465c0.534,0.212,1.092,0.358,1.465,0.473C23.55,47.93,23.762,47.954,23.932,47.881z
		 M34.815,48.328c0.572,0.69,1.201,1.308,2.186,1.272c0.151-0.005,0.31-0.164,0.434-0.281c0.038-0.037,0-0.214-0.057-0.274
		c-0.67-0.714-1.471-1.175-2.471-1.219c-0.044-0.002-0.095,0.141-0.143,0.216C34.78,48.14,34.762,48.263,34.815,48.328z
		 M23.55,57.744c-0.538,0.228-1.1,0.424-1.584,0.741c-0.159,0.103-0.166,0.532-0.14,0.802c0.024,0.263,0.421,0.389,0.714,0.321
		c0.596-0.141,1.123-0.41,1.534-0.858c0.106-0.117,0.154-0.36,0.113-0.515c-0.046-0.169-0.227-0.302-0.349-0.449
		C23.742,57.77,23.627,57.711,23.55,57.744z M30.254,52.735c-0.114,0.104-0.215,0.401-0.153,0.482
		c0.16,0.208,0.409,0.472,0.63,0.479c0.255,0.007,0.545-0.204,0.765-0.386c0.114-0.094,0.167-0.339,0.146-0.504
		c-0.039-0.302-0.362-0.516-0.754-0.468C30.737,52.427,30.463,52.546,30.254,52.735z M18.675,57.774
		c-0.566-0.255-1.176-0.147-1.612,0.291c-0.057,0.057-0.081,0.211-0.044,0.281c0.077,0.154,0.188,0.384,0.314,0.405
		c0.583,0.092,1.273-0.308,1.446-0.779C18.745,57.905,18.728,57.799,18.675,57.774z M35.124,52.679
		c0.079-0.033,0.139-0.115,0.208-0.174c-0.111-0.103-0.213-0.269-0.337-0.286c-0.085-0.014-0.201,0.178-0.303,0.277
		C34.76,52.696,34.909,52.765,35.124,52.679z M24.516,37.862c0.634,0.329,1.328,0.471,2.047,0.298
		c0.093-0.024,0.209-0.093,0.243-0.169c0.035-0.079,0.007-0.214-0.044-0.293c-0.463-0.709-1.125-1.124-1.957-1.272
		c-0.347-0.062-0.865,0.416-0.775,0.848C24.148,37.424,24.281,37.741,24.516,37.862z M25.599,23.601
		c0.705,0.334,1.428,0.635,2.162,0.904c0.127,0.046,0.418-0.075,0.478-0.197c0.063-0.128-0.004-0.396-0.11-0.52
		c-0.613-0.722-1.467-0.944-2.361-1.028c-0.115-0.01-0.255,0.228-0.383,0.351C25.453,23.278,25.478,23.542,25.599,23.601z
		 M41.105,41.773c0.285-0.925,0.066-1.589-0.779-2.236c-0.073-0.057-0.442,0.083-0.466,0.181c-0.188,0.786,0.056,1.486,0.531,2.115
		c0.051,0.066,0.164,0.087,0.248,0.13C40.868,42.054,41.037,41.994,41.105,41.773z M33.307,39.588
		c0.733,0.481,1.536,0.758,2.421,0.74c0.059-0.002,0.155-0.125,0.16-0.198c0.005-0.086-0.047-0.199-0.113-0.264
		c-0.65-0.642-1.453-0.921-2.349-0.957c-0.072-0.003-0.167,0.103-0.216,0.182c-0.038,0.063-0.023,0.161-0.031,0.245
		C33.221,39.422,33.239,39.544,33.307,39.588z M38.79,33.28c-0.268-0.101-0.532-0.226-0.809-0.298
		c-0.174-0.045-0.436-0.083-0.535,0.01c-0.104,0.096-0.136,0.38-0.075,0.531c0.178,0.443,0.393,0.876,0.648,1.278
		c0.072,0.115,0.348,0.18,0.5,0.146c0.142-0.032,0.308-0.214,0.35-0.361c0.14-0.483,0.047-0.958-0.174-1.406
		C38.695,33.181,38.787,33.279,38.79,33.28z M32.5,24.704c-0.087-0.949-0.565-1.668-1.351-2.19c-0.074-0.048-0.209-0.06-0.295-0.029
		c-0.237,0.084-0.309,0.252-0.235,0.461c0.235,0.676,0.575,1.292,1.126,1.759c0.143,0.121,0.367,0.147,0.546,0.212
		C32.367,24.844,32.507,24.767,32.5,24.704z M18.507,35.84c0.437,0.43,0.997,0.597,1.59,0.617c0.137,0.005,0.362-0.164,0.397-0.293
		c0.04-0.144-0.043-0.39-0.16-0.494c-0.517-0.459-1.135-0.719-1.829-0.776c-0.068-0.007-0.168,0.104-0.214,0.185
		c-0.042,0.077-0.033,0.184-0.048,0.278C18.329,35.52,18.381,35.717,18.507,35.84z M37.203,38.17
		c0.065-0.058,0.146-0.171,0.128-0.236c-0.241-0.93-0.805-1.6-1.679-1.996c-0.051-0.022-0.169,0.041-0.22,0.095
		c-0.062,0.069-0.133,0.18-0.118,0.259c0.179,0.957,0.825,1.539,1.563,2.01C37.035,38.241,37.137,38.227,37.203,38.17z
		 M40.435,44.004c0.065-0.138-0.017-0.398-0.114-0.556c-0.339-0.542-0.854-0.82-1.486-0.911c-0.239-0.034-0.421,0-0.505,0.229
		c-0.065,0.178-0.172,0.42-0.104,0.554c0.348,0.687,0.911,1.051,1.707,0.971C40.109,44.198,40.367,44.146,40.435,44.004z
		 M33.125,28.683c-0.325,0.423-0.505,0.878-0.16,1.364c0.228,0.321,0.484,0.631,0.781,0.886c0.102,0.087,0.36,0.008,0.542-0.026
		c0.026-0.003,0.064-0.203,0.024-0.269c-0.409-0.675-0.833-1.341-1.253-2.008L33.125,28.683z M33.063,28.636
		c0.004,0.005-0.078,0.12-0.078,0.12l0.14-0.074C33.125,28.683,33.058,28.63,33.063,28.636z M55.164,83.162
		c-0.104-0.163-0.256-0.332-0.427-0.407c-0.149-0.062-0.359-0.021-0.531,0.023c-0.076,0.017-0.17,0.145-0.177,0.23
		c-0.084,1.057,0.239,1.977,0.98,2.737c0.06,0.062,0.217,0.121,0.268,0.086c0.14-0.09,0.248-0.231,0.369-0.354
		C55.737,84.655,55.622,83.869,55.164,83.162z M41.782,88.089c0.399,0.004,0.779-0.492,0.59-0.778
		c-0.421-0.644-0.872-1.268-1.32-1.894c-0.112-0.153-0.621,0.047-0.709,0.293c-0.128,0.363-0.228,0.738-0.341,1.107
		c0.557,0.232,0.664,0.694,0.631,1.228C41.017,88.062,41.399,88.086,41.782,88.089z M45.341,66.281
		c0.049,0.042,0.214,0.004,0.286-0.051c0.683-0.529,0.97-1.262,0.989-2.099c0.004-0.18-0.13-0.37-0.227-0.541
		c-0.042-0.076-0.144-0.124-0.227-0.173c-0.228-0.139-0.384-0.078-0.497,0.163c-0.343,0.729-0.722,1.446-0.676,2.281
		C45.109,66.011,45.206,66.168,45.341,66.281z M43.912,70.871c0.096,0.137,0.225,0.266,0.367,0.356
		c0.057,0.035,0.221-0.007,0.273-0.068c0.619-0.718,1.015-1.503,0.546-2.455c-0.075-0.149-0.302-0.231-0.473-0.317
		c-0.029-0.015-0.165,0.089-0.186,0.16c-0.205,0.669-0.396,1.343-0.56,1.899C43.893,70.673,43.863,70.8,43.912,70.871z
		 M51.233,80.609c0.068,0.4-0.137-0.072,0.226,0.1c0.092,0.044,0.414-0.135,0.434-0.248c0.158-0.877,0.078-1.736-0.346-2.545
		c-0.098-0.186-0.168-0.231-0.279-0.097c-0.054,0.065-0.135,0.128-0.148,0.202c-0.053,0.284-0.082,0.571-0.133,0.967
		C51.057,79.462,51.136,80.038,51.233,80.609z M48.166,68.77c0.032,0.674-0.035,1.409,0.72,1.767
		c0.385,0.183,0.607-0.686,0.393-1.75c-0.057-0.282-0.179-0.566-0.342-0.802c-0.058-0.084-0.377-0.084-0.491-0.003
		c-0.135,0.097-0.178,0.322-0.26,0.493C48.177,68.572,48.161,68.671,48.166,68.77z M49.569,63.996
		c0.064-0.067,0.129-0.167,0.135-0.255c0.044-0.826-0.27-1.529-0.808-2.131c-0.113-0.126-0.335-0.182-0.518-0.212
		c-0.183-0.033-0.344,0.465-0.224,0.737c0.235,0.534,0.471,1.07,0.749,1.584c0.081,0.151,0.3,0.226,0.457,0.336
		C49.431,64.036,49.525,64.041,49.569,63.996z M52.085,67.647c-0.066-0.065-0.195-0.129-0.269-0.107
		c-0.072,0.022-0.146,0.148-0.161,0.239c-0.146,0.863,0.328,1.514,0.773,2.168c0.044,0.063,0.198,0.099,0.277,0.077
		c0.077-0.023,0.123-0.142,0.237-0.292C52.858,69,52.693,68.239,52.085,67.647z M55.124,77.841c0.303-0.734,0.065-1.363-0.415-1.93
		c-0.061-0.073-0.22-0.17-0.244-0.15c-0.127,0.11-0.3,0.24-0.326,0.386c-0.105,0.64,0.201,1.166,0.55,1.666
		c0.053,0.077,0.163,0.114,0.246,0.171C55,77.936,55.098,77.902,55.124,77.841z M31.03,63.543c0.645-0.311,1.162-0.772,1.551-1.354
		c0.147-0.221,0.157-0.555,0.167-0.84c0.011-0.333-0.35-0.595-0.579-0.477c-0.804,0.413-1.511,0.943-2.031,1.686
		c-0.093,0.134-0.044,0.367-0.062,0.555C30.197,63.492,30.701,63.703,31.03,63.543z M37.623,67.701
		c0.151,0.021,0.412-0.081,0.477-0.205c0.467-0.885,0.789-1.818,0.632-2.836c-0.021-0.136-0.241-0.32-0.386-0.336
		c-0.16-0.017-0.453,0.096-0.491,0.216c-0.268,0.838-0.486,1.695-0.709,2.548c-0.023,0.087,0.026,0.193,0.04,0.291
		C37.331,67.493,37.465,67.678,37.623,67.701z M30.541,78.742c0.031,0.04,0.208,0.008,0.283-0.041
		c0.857-0.58,1.391-1.401,1.727-2.362c0.03-0.083,0.006-0.211-0.042-0.289c-0.098-0.164-0.198-0.369-0.353-0.441
		c-0.133-0.063-0.426-0.033-0.504,0.068c-0.427,0.549-0.838,1.12-1.199,1.716c-0.147,0.241-0.157,0.567-0.219,0.816
		C30.35,78.422,30.424,78.598,30.541,78.742z M36.38,70.177c-0.625,0.693-0.967,1.513-1.045,2.438
		c-0.007,0.082,0.069,0.232,0.131,0.244c0.163,0.041,0.399,0.098,0.501,0.017c0.762-0.608,1.116-1.412,0.991-2.386
		c-0.02-0.148-0.187-0.279-0.282-0.411C36.566,70.112,36.437,70.114,36.38,70.177z M30.956,83.442
		c0.712-0.314,1.104-0.884,1.134-1.641c0.012-0.258-0.195-0.551-0.362-0.784c-0.132-0.186-0.609-0.008-0.749,0.274
		c-0.265,0.535-0.683,1.029-0.581,1.682c0.03,0.185,0.169,0.35,0.258,0.525C30.758,83.481,30.866,83.481,30.956,83.442z
		 M37.555,62.304c0.506-0.62,0.585-1.212,0.202-1.524c-0.065-0.053-0.202-0.075-0.279-0.046c-0.483,0.19-0.68,0.643-0.596,1.421
		c0.024,0.227,0.214,0.313,0.444,0.27C37.404,62.385,37.505,62.366,37.555,62.304z M34.286,78.046
		c0.066,0.033,0.183,0.021,0.25-0.019c0.489-0.285,0.615-0.736,0.536-1.263c-0.013-0.092-0.07-0.192-0.139-0.252
		c-0.034-0.029-0.166,0.001-0.211,0.048c-0.358,0.349-0.677,0.722-0.631,1.273C34.154,77.909,34.205,78.008,34.286,78.046z
		 M40.612,60.677c0.046-0.271,0.1-0.556,0.069-0.825c-0.018-0.161-0.191-0.306-0.294-0.457c-0.116,0.142-0.301,0.268-0.334,0.426
		c-0.054,0.266-0.046,0.558,0.005,0.824c0.019,0.103,0.232,0.166,0.346,0.241C40.487,60.807,40.599,60.751,40.612,60.677z"/>
</g>
</svg>
