<?xml version="1.0" encoding="utf-8"?>
<!-- Generator: Adobe Illustrator 16.0.0, SVG Export Plug-In . SVG Version: 6.00 Build 0)  -->
<!DOCTYPE svg PUBLIC "-//W3C//DTD SVG 1.1//EN" "http://www.w3.org/Graphics/SVG/1.1/DTD/svg11.dtd">
<svg version="1.1" id="Layer_1" xmlns="http://www.w3.org/2000/svg" xmlns:xlink="http://www.w3.org/1999/xlink" x="0px" y="0px"
	 width="100px" height="100px" viewBox="0 0 100 100" enable-background="new 0 0 100 100" xml:space="preserve">
<path fill-rule="evenodd" clip-rule="evenodd" fill="#F8BE39" d="M62.873,87.607c-2.741,0.137-5.478,0.187-8.219-0.058
	c-1.263-0.114-2.538-0.128-3.809-0.131c-2.008-0.004-4.01-0.053-6.007-0.306c-0.792-0.101-1.604-0.093-2.404-0.062
	c-1.345,0.054-2.675-0.049-3.993-0.291c-1.384-0.254-2.772-0.449-4.176-0.556c-0.729-0.054-1.461-0.178-2.173-0.353
	c-2.726-0.674-5.445-1.377-8.163-2.082c-0.451-0.117-0.875-0.353-1.33-0.444c-0.973-0.198-1.703-0.767-2.34-1.465
	c-0.625-0.688-1.335-1.323-1.663-2.235c-0.859-1.034-1.524-2.196-2.223-3.337c-0.349-0.569-0.671-1.157-1.023-1.726
	c-0.606-0.975-1.011-2.008-1.228-3.151c-0.223-1.177-0.66-2.305-0.759-3.521c-0.28-3.472-0.411-6.945-0.108-10.42
	c0.174-2,0.643-3.957,1.135-5.897c0.265-1.041,0.461-2.09,0.609-3.146c0.195-1.389,0.26-2.794,0.563-4.171
	c0.135-0.613,0-1.18-0.415-1.69c-1.313-1.614-2.667-3.175-4.526-4.206c-0.653-0.362-1.312-0.648-2.051-0.768
	c-0.594-0.096-1.171-0.29-1.766-0.361c-0.761-0.094-1.182-0.561-1.502-1.18c-0.093-0.178-0.154-0.371-0.242-0.551
	c-0.654-1.326-0.325-2.462,0.672-3.463c0.139-0.139,0.31-0.283,0.492-0.332c0.898-0.248,1.786-0.584,2.744-0.506
	c0.733,0.061,1.467,0.122,2.198,0.197c0.808,0.083,1.575,0.272,2.25,0.77c0.32,0.235,0.68,0.453,1.056,0.568
	c0.912,0.279,1.688,0.791,2.475,1.301c0.238,0.154,0.548-0.014,0.57-0.317c0.041-0.6,0.097-1.201,0.083-1.8
	c-0.005-0.248-0.134-0.52-0.277-0.73c-0.929-1.344-1.122-2.046-0.876-3.531c0.029-0.176,0.157-0.41,0.305-0.477
	c0.707-0.321,1.168-0.845,1.518-1.526c0.144-0.282,0.433-0.506,0.693-0.709c0.421-0.329,0.861-0.638,1.314-0.92
	c0.448-0.278,0.868-0.615,1.449-0.63c0.253-0.007,0.502-0.174,0.75-0.271c1.124-0.441,2.286-0.714,3.475-0.946
	c1.971-0.386,3.966-0.549,5.951-0.802c2.122-0.27,4.236-0.601,6.35-0.929c0.162-0.025,0.363-0.22,0.424-0.381
	c0.088-0.245,0.079-0.526,0.09-0.794c0.027-0.654,0.295-1.125,1.248-1.342c0.586-0.133,1.188-0.221,1.785-0.268
	c0.969-0.076,1.605-0.555,1.998-1.432c0.219-0.484,0.498-0.943,0.755-1.412c0.161-0.293,0.313-0.591,0.499-0.866
	c0.59-0.88,1.387-1.372,2.469-1.524c2.012-0.284,4.002-0.125,5.992,0.131c0.957,0.123,1.752,0.64,2.485,1.229
	c0.251,0.201,0.435,0.51,0.592,0.8c0.253,0.471,0.48,0.958,0.68,1.453c0.507,1.263,1.452,1.86,2.785,1.905
	c0.333,0.012,0.67,0.008,1.001,0.054c0.596,0.082,1.185,0.195,1.725,0.491c0.516,0.284,0.813,0.641,0.702,1.289
	c-0.073,0.424,0.147,0.668,0.493,0.73c0.987,0.174,1.974,0.352,2.965,0.503c0.922,0.141,1.853,0.234,2.775,0.375
	c0.594,0.093,1.18,0.233,1.77,0.35c0.458,0.091,0.914,0.205,1.377,0.259c1.065,0.125,2.105,0.342,3.127,0.676
	c1.46,0.478,2.938,0.9,4.398,1.373c1.457,0.471,2.666,1.233,3.121,2.82c0.179,0.623,0.72,0.946,1.136,1.373
	c0.246,0.252,0.375,0.549,0.376,0.896c0.001,0.267-0.048,0.539-0.018,0.801c0.066,0.574-0.165,1.051-0.468,1.496
	c-0.187,0.274-0.44,0.501-0.65,0.761c-0.269,0.332-0.288,0.737-0.307,1.141c-0.013,0.272,0.255,0.56,0.489,0.512
	c1.894-0.384,3.829-0.566,5.656-1.265c0.618-0.237,1.288-0.354,1.943-0.467c0.317-0.057,0.661,0.01,0.99,0.041
	c0.5,0.05,0.893,0.314,1.136,0.734c0.3,0.52,0.638,1.045,0.789,1.613c0.35,1.307,0.032,2.517-0.796,3.584
	c-0.073,0.094-0.216,0.151-0.338,0.186c-0.126,0.036-0.266,0.039-0.397,0.029c-1.741-0.137-3.277,0.547-4.809,1.219
	c-0.933,0.409-1.667,1.096-2.32,1.875c-0.46,0.549-0.617,1.117-0.522,1.846c0.271,2.061,0.738,4.07,1.323,6.061
	c0.526,1.796,1.09,3.588,1.479,5.415c0.558,2.615,1.005,5.257,0.953,7.952c-0.021,1.069-0.058,2.141-0.037,3.209
	c0.047,2.363-0.407,4.654-0.926,6.938c-0.414,1.826-0.977,3.608-1.618,5.364c-0.552,1.507-1.254,2.947-2.031,4.35
	c-0.724,1.303-1.851,2.042-3.253,2.486c-3.913,1.24-7.922,1.922-12.007,2.203C67.147,87.367,65.01,87.479,62.873,87.607z
	 M44.999,17.649c-0.126,0.017-0.28-0.007-0.368,0.059c-0.211,0.155-0.404,0.34-0.578,0.536c-0.467,0.529-1.059,0.77-1.747,0.802
	c-0.462,0.022-0.925,0.03-1.386,0.057c-0.196,0.012-0.391,0.052-0.586,0.085s-0.454,0.365-0.455,0.58
	c-0.002,0.223,0.27,0.525,0.5,0.531c0.46,0.014,0.924,0.048,1.38,0.007c1.691-0.149,2.833-0.974,3.198-2.706
	c0.263-0.362,0.298-0.75,0.129-1.16c0.265,0.073,0.539,0.111,0.759-0.083c0.249-0.218,0.491-0.454,0.698-0.713
	c0.664-0.832,1.66-1.095,2.576-1.462c0.682-0.275,1.445-0.194,2.172-0.056c0.59,0.113,1.174,0.253,1.759,0.389
	c0.862,0.198,1.64,0.554,2.27,1.2c0.125,0.127,0.336,0.173,0.511,0.248c0.129,0.055,0.145,0.002,0.15-0.139
	c0.017-0.372-0.266-0.592-0.409-0.881c-0.356-0.719-0.958-1.09-1.714-1.248c-0.327-0.066-0.656-0.146-0.986-0.159
	c-1.599-0.064-3.194-0.164-4.795,0.022c-0.793,0.092-1.343,0.464-1.855,1.043c-0.5,0.568-0.635,1.322-1.082,1.916
	C45.092,16.895,45.045,17.272,44.999,17.649z M38.193,36.501c-0.787-0.14-1.574-0.282-2.361-0.419
	c-0.922-0.159-1.843-0.33-2.769-0.47c-3.837-0.582-7.634-1.331-11.308-2.618c-0.818-0.287-1.662-0.504-2.494-0.751
	c-0.182-0.054-0.423,0.102-0.42,0.286c0.006,0.466,0.02,0.931,0.043,1.396c0.011,0.188,0.23,0.396,0.39,0.389
	c0.266-0.012,0.537,0,0.793-0.057c0.88-0.195,1.549,0.107,2.148,0.753c0.46,0.496,0.858,1.018,1.163,1.62
	c0.426,0.845,0.694,1.74,0.816,2.672c0.042,0.316,0,0.682-0.125,0.975c-0.391,0.921-0.797,1.841-1.273,2.718
	c-0.619,1.136-1.586,1.78-2.922,1.783c-0.603,0.001-1.195-0.037-1.787-0.193c-0.566-0.149-0.799,0.017-0.819,0.539
	c-0.058,1.342-0.314,2.651-0.559,3.966c-0.513,2.757-0.948,5.529-1.626,8.256c-0.439,1.766-0.484,3.566-0.367,5.377
	c0.082,1.267,0.184,2.535,0.188,3.804c0.004,0.878,0.098,1.734,0.294,2.582c0.472,2.025,1.046,4.011,2.376,5.68
	c0.082,0.104,0.133,0.232,0.192,0.353c0.745,1.505,1.688,2.873,2.761,4.163c1.057,1.268,2.305,2.207,3.941,2.571
	c0.912,0.202,1.823,0.415,2.734,0.623c1.318,0.734,2.826,0.75,4.242,1.114c0.233,0.061,0.546-0.193,0.545-0.439
	c-0.004-0.667-0.018-1.335-0.032-2.002c-0.04-1.707,0.757-2.95,2.181-3.797c0.627-0.372,1.311-0.675,2.002-0.91
	c1.856-0.635,3.708-0.363,5.51,0.233c1.264,0.418,2.277,1.828,2.529,3.128c0.21,1.075,0.104,2.128-0.008,3.189
	c-0.048,0.464-0.153,0.922-0.226,1.384c-0.04,0.258,0.171,0.518,0.448,0.558c0.859,0.125,1.716,0.258,2.576,0.363
	c0.397,0.049,0.801,0.053,1.199,0.063c2.538,0.058,5.079-0.037,7.612,0.188c1.271,0.113,2.537,0.045,3.804-0.062
	c0.467-0.039,0.932-0.103,1.398-0.115c3.612-0.098,7.197-0.521,10.785-0.894c1.393-0.145,2.778-0.354,4.159-0.586
	c2.125-0.357,4.108-1.151,6.046-2.066c0.363-0.172,0.713-0.372,0.945-0.72c0.63-0.936,1.41-1.773,1.857-2.828
	c0.285-0.676,0.543-1.364,0.843-2.033c0.579-1.293,0.821-2.665,1.004-4.053c0.025-0.188-0.144-0.38-0.354-0.401
	c-0.532-0.055-1.067-0.085-1.597-0.156c-0.866-0.117-1.747-0.294-2.456-0.8c-1.636-1.169-2.688-2.756-3.087-4.75
	c-0.266-1.329,0.017-2.556,0.893-3.565c1.547-1.781,3.219-3.413,5.725-3.765c0.32-0.045,0.631-0.202,0.932-0.341
	c0.104-0.047,0.207-0.181,0.238-0.295c0.052-0.187,0.063-0.392,0.063-0.588c0.002-2.025-0.398-3.979-1.007-5.904
	c-0.583-1.846-1.258-3.669-1.448-5.618c-0.026-0.257-0.162-0.505-0.259-0.752c-0.063-0.161-0.185-0.207-0.315-0.119
	c-0.491,0.326-0.916,0.875-1.572,0.748c-0.582-0.11-1.145-0.355-1.694-0.594c-0.363-0.158-0.689-0.404-1.029-0.617
	c-0.909-0.569-1.409-1.395-1.542-2.454c-0.042-0.331-0.106-0.661-0.153-0.991c-0.188-1.303,0.109-2.447,0.833-3.585
	c0.706-1.11,1.539-2,2.674-2.633c0.175-0.097,0.34-0.215,0.496-0.341c0.279-0.229,0.357-0.546,0.366-0.891
	c0.015-0.717-0.224-0.826-0.834-0.658c-0.837,0.23-1.684,0.423-2.52,0.652c-3.741,1.033-7.565,1.678-11.37,2.402
	c-2.563,0.487-5.158,0.77-7.777,0.696c-2.674-0.075-5.344,0.06-8.012,0.185c-3.411,0.158-6.812,0.205-10.203-0.271
	c-0.131-0.018-0.274-0.024-0.397,0.012c-0.098,0.028-0.183,0.123-0.25,0.207c-0.018,0.021,0.033,0.131,0.078,0.168
	c0.576,0.458,1.153,0.906,1.553,1.548c0.377,0.608,0.545,1.269,0.243,1.905c-0.34,0.717-0.774,1.407-1.429,1.901
	c-0.207,0.157-0.464,0.266-0.716,0.342c-1.074,0.325-2.136,0.164-3.135-0.257c-0.91-0.386-1.513-1.087-1.604-2.133
	c-0.012-0.133-0.028-0.266-0.052-0.396c-0.162-0.943,0.191-1.721,0.842-2.354c0.377-0.367,0.85-0.638,1.291-0.938
	C38.163,36.725,38.232,36.648,38.193,36.501z M20.758,26.445c-0.078,0.781,0.17,1.175,0.599,1.335
	c0.687,0.256,1.415,0.449,2.039,0.817c1.253,0.742,2.621,0.956,4.022,1.086c0.229,0.021,0.386-0.131,0.449-0.322
	c0.106-0.316,0.146-0.654,0.254-0.971c0.348-1.005,1.01-1.75,2.023-2.08c2.274-0.74,3.537-0.318,5.046,1.316
	c0.548,0.594,0.935,1.295,1.007,2.142c0.044,0.522,0.363,0.843,0.91,0.899c0.399,0.041,0.797,0.13,1.196,0.13
	c1.276-0.001,2.53,0.19,3.792,0.339c1.126,0.135,2.258,0.238,3.4,0.197c1.133-0.043,2.322-0.234,3.385,0.151
	c1.137,0.411,2.259-0.036,3.359,0.233c0.194,0.047,0.399,0.06,0.589,0.121c1.163,0.377,2.36,0.424,3.568,0.398
	c1-0.022,2.016,0.065,3-0.072c0.981-0.139,1.933-0.494,2.893-0.771c0.105-0.03,0.233-0.175,0.251-0.281
	c0.097-0.592,0.161-1.188,0.24-1.783c0.057-0.424,0.259-0.772,0.648-0.951c0.544-0.247,1.1-0.484,1.671-0.658
	c0.309-0.095,0.673-0.114,0.989-0.053c0.723,0.143,1.427,0.365,2.044,0.791c0.335,0.23,0.617,0.51,0.791,0.886
	c0.197,0.425,0.403,0.846,0.611,1.265c0.121,0.248,0.393,0.377,0.663,0.328c1.185-0.217,2.371-0.422,3.551-0.656
	c0.655-0.131,1.301-0.308,1.948-0.47c0.323-0.081,0.638-0.22,0.965-0.257c1.355-0.153,2.56-0.75,3.786-1.272
	c0.237-0.101,0.444-0.29,0.642-0.466c0.42-0.376,0.413-0.873-0.02-1.198c-0.426-0.321-0.896-0.588-1.305-0.931
	c-1.137-0.957-2.505-1.191-3.915-1.313c-0.303-0.025-0.505,0.141-0.615,0.408c-0.409,0.986-1.169,1.61-2.117,2.021
	c-0.959,0.414-1.94,0.385-2.949,0.141c-0.814-0.197-1.43-0.707-2.097-1.146c-0.404-0.267-0.68-0.646-0.816-1.109
	c-0.208-0.705-0.407-1.413-0.596-2.123c-0.099-0.373-0.327-0.545-0.701-0.581c-4.065-0.399-8.142-0.538-12.225-0.517
	c-0.267,0.001-0.534,0.029-0.8,0.057c-0.28,0.031-0.501,0.168-0.641,0.418c-0.131,0.232-0.264,0.465-0.385,0.703
	c-0.328,0.647-0.912,0.979-1.562,1.166c-0.723,0.207-1.462,0.168-2.151-0.172c-0.524-0.26-0.729-0.757-0.86-1.291
	c-0.017-0.064-0.026-0.131-0.052-0.193c-0.143-0.359-0.375-0.527-0.767-0.511c-1.536,0.069-3.075,0.117-4.608,0.236
	c-2.066,0.161-4.127,0.382-6.191,0.581c-0.199,0.02-0.394,0.078-0.592,0.105c-0.794,0.107-1.588,0.221-2.384,0.312
	c-0.532,0.06-1.067,0.073-1.6,0.134c-0.548,0.063-1.035,0.24-1.347,0.754c-0.211,0.351-0.541,0.583-0.9,0.777
	c-0.81,0.437-1.662,0.507-2.527,0.24c-0.508-0.158-0.984-0.412-1.49-0.584c-0.244-0.082-0.547-0.162-0.773-0.088
	c-0.886,0.29-1.762,0.62-2.617,0.987c-0.218,0.093-0.402,0.356-0.51,0.585C20.838,25.981,20.791,26.32,20.758,26.445z M54.03,35.873
	c2.541-0.012,5.077-0.14,7.612-0.277c2.874-0.155,5.722-0.463,8.514-1.198c0.645-0.169,1.292-0.354,1.95-0.44
	c2.66-0.352,5.218-1.139,7.799-1.824c0.834-0.221,1.627-0.598,2.432-0.922c0.18-0.073,0.333-0.215,0.489-0.336
	c0.251-0.199,0.225-0.937-0.062-1.078c-0.158-0.079-0.403-0.118-0.559-0.053c-1.849,0.782-3.763,1.362-5.697,1.883
	c-0.451,0.122-0.912,0.234-1.335,0.425c-1.426,0.64-2.943,0.917-4.471,1.05c-2.928,0.252-5.829,0.785-8.773,0.854
	c-0.267,0.006-0.537,0.026-0.798,0.08c-1.722,0.352-3.455,0.273-5.193,0.188c-2.137-0.105-4.274-0.152-6.412-0.229
	c-0.935-0.034-1.871-0.059-2.804-0.13c-2.999-0.225-5.99-0.536-8.998-0.641c-0.733-0.027-1.474-0.083-2.193-0.221
	c-1.839-0.35-3.695-0.578-5.544-0.863c-1.979-0.307-3.94-0.729-5.905-1.125c-0.455-0.091-0.896-0.264-1.336-0.42
	c-0.689-0.25-1.365-0.541-2.063-0.768c-0.39-0.126-0.741-0.266-1.036-0.563c-0.383-0.386-0.88-0.6-1.383-0.789
	c-0.152-0.057-0.45,0.133-0.447,0.289c0.011,0.552,0.122,1.06,0.614,1.402c0.22,0.152,0.417,0.35,0.653,0.463
	c2.477,1.172,5.007,2.201,7.668,2.881c0.517,0.131,1.049,0.202,1.572,0.302c3.412,0.657,6.83,1.284,10.305,1.507
	c0.467,0.029,0.931,0.092,1.396,0.135c1.797,0.162,3.592,0.393,5.392,0.465c2.2,0.088,4.407,0.144,6.609-0.035
	C52.69,35.828,53.362,35.873,54.03,35.873z M9.091,32.693c-0.396,0.055-0.86,0.111-1.321,0.193c-0.123,0.021-0.26,0.097-0.344,0.189
	c-0.428,0.464-0.678,0.996-0.51,1.643c0.031,0.12,0.119,0.274,0.221,0.314c0.369,0.149,0.756,0.256,1.135,0.381
	s0.796,0.188,1.127,0.389c2.111,1.285,4.207,2.592,5.821,4.529c0.553,0.663,1.196,1.256,1.827,1.85
	c0.287,0.272,0.625,0.509,0.979,0.686c0.627,0.317,1.283,0.324,1.936,0.031c0.5-0.227,0.928-0.544,1.209-1.015
	c0.309-0.515,0.604-1.04,0.863-1.58c0.6-1.245,0.332-2.478-0.151-3.679c-0.087-0.217-0.35-0.448-0.576-0.509
	c-0.986-0.267-1.958-0.341-2.873,0.309c-0.45,0.321-0.775,0.278-1.068-0.069c-0.884-1.048-1.976-1.779-3.247-2.27
	c-0.373-0.145-0.729-0.338-1.076-0.535C11.834,32.861,10.491,32.81,9.091,32.693z M42.9,81.188
	c-0.023-0.404-0.049-0.937-0.087-1.468c-0.024-0.344-0.171-0.641-0.412-0.887c-0.233-0.237-0.491-0.452-0.712-0.7
	c-0.426-0.474-0.967-0.692-1.578-0.773c-0.199-0.025-0.397-0.06-0.597-0.07c-1.812-0.104-3.423,0.419-4.813,1.583
	c-0.694,0.582-1.103,1.327-1.093,2.261c0.006,0.6,0,1.2,0.025,1.8c0.034,0.797,0.281,1.093,1.044,1.202
	c1.779,0.256,3.561,0.495,5.345,0.729c0.394,0.051,0.796,0.067,1.195,0.063c0.615-0.006,1.119-0.435,1.313-1.043
	C42.796,83.047,42.813,82.178,42.9,81.188z M87.702,66.99c-0.024-0.408-0.002-0.813-0.079-1.201
	c-0.276-1.384-0.205-2.785-0.253-4.18c-0.014-0.399-0.018-0.799-0.045-1.196c-0.021-0.314-0.399-0.591-0.717-0.541
	c-2.37,0.372-4.181,1.637-5.593,3.523c-0.455,0.607-0.584,1.307-0.586,2.065c-0.003,1.193,0.487,2.174,1.109,3.145
	c0.763,1.191,2.488,2.089,4.403,1.563c0.882-0.242,1.548-0.774,1.63-1.794C87.609,67.911,87.659,67.448,87.702,66.99z
	 M50.102,19.987c0.959,0,1.692,0.004,2.426-0.001c0.533-0.004,1.068,0.004,1.6-0.035c0.475-0.037,0.818-0.51,0.791-0.984
	c-0.044-0.74-0.226-1.45-0.452-2.151c-0.156-0.485-0.482-0.8-0.974-0.911c-1.239-0.283-2.506-0.358-3.771-0.436
	c-0.131-0.009-0.269,0.017-0.396,0.053c-1.178,0.342-2.248,0.822-2.762,2.065c-0.203,0.493-0.471,0.958-0.699,1.44
	c-0.145,0.307,0.146,0.891,0.483,0.977c0.651,0.166,1.313,0.202,1.982,0.139C48.995,20.079,49.661,20.025,50.102,19.987z
	 M92.552,34.113c-0.894-0.033-1.599,0.13-2.313,0.336c-1.023,0.295-2.07,0.51-3.114,0.723c-0.915,0.189-1.842,0.324-2.761,0.492
	c-0.383,0.07-0.688,0.447-0.725,0.855c-0.006,0.066-0.029,0.132-0.027,0.197c0.045,1.207,0.184,2.396,0.631,3.53
	c0.062,0.153,0.369,0.188,0.521,0.044c0.293-0.274,0.586-0.547,0.867-0.832c0.854-0.869,1.838-1.525,2.969-2.004
	c1.175-0.496,2.348-0.961,3.616-1.148c0.275-0.041,0.5-0.207,0.639-0.443c0.169-0.286,0.343-0.581,0.431-0.895
	c0.043-0.154-0.057-0.412-0.18-0.529C92.923,34.266,92.663,34.176,92.552,34.113z M83.594,41.306
	c-0.021-0.255-0.019-0.522-0.07-0.78c-0.209-1.04-0.431-2.076-0.652-3.113c-0.058-0.27-0.541-0.498-0.817-0.395
	c-0.123,0.046-0.263,0.074-0.365,0.149c-1.052,0.771-1.767,1.8-2.134,3.036c-0.32,1.072-0.074,2.105,0.503,3.047
	c0.133,0.217,0.361,0.387,0.574,0.539c0.412,0.299,1.118,0.288,1.498-0.023c0.307-0.253,0.579-0.546,0.877-0.809
	c0.264-0.229,0.402-0.516,0.458-0.853C83.508,41.842,83.55,41.58,83.594,41.306z M39.209,42.088c0.199,0,0.332-0.002,0.465,0.001
	c0.635,0.013,1.174-0.2,1.584-0.692c0.213-0.254,0.443-0.508,0.59-0.801c0.496-0.975,0.371-1.823-0.535-2.433
	c-0.892-0.599-1.84-0.726-2.857-0.503c-0.188,0.042-0.386,0.128-0.538,0.248c-0.976,0.765-1.376,1.761-1.126,2.989
	c0.102,0.501,0.43,0.847,0.907,0.968C38.21,41.994,38.746,42.023,39.209,42.088z M33.18,30.411c0.143,0,0.742,0.015,1.342-0.005
	c0.485-0.014,0.848-0.487,0.786-0.968c-0.063-0.481-0.226-0.913-0.626-1.212c-0.374-0.279-0.765-0.537-1.15-0.803
	c-0.52-0.359-1.105-0.447-1.719-0.424c-0.855,0.033-1.511,0.47-2.118,1.021c-0.438,0.398-0.563,0.879-0.46,1.45
	c0.04,0.222,0.148,0.386,0.324,0.466c0.239,0.107,0.504,0.191,0.764,0.221C31.12,30.246,31.92,30.303,33.18,30.411z M71.273,25.957
	c1.39,0.009,1.983-0.246,2.641-1.07c0.119-0.148,0.183-0.348,0.257-0.527c0.096-0.24-0.033-0.615-0.233-0.686
	c-0.372-0.133-0.74-0.281-1.122-0.379c-0.894-0.225-1.799-0.372-2.646-0.797c-0.382-0.192-0.899-0.129-1.357-0.15
	c-0.287-0.014-0.637,0.426-0.564,0.693c0.088,0.313,0.186,0.629,0.307,0.932C69.085,25.293,70.153,25.826,71.273,25.957z
	 M65.593,31.464c0.601-0.05,1.132-0.069,1.656-0.144c0.571-0.08,0.854-0.688,0.633-1.209c-0.161-0.385-0.428-0.664-0.725-0.933
	c-0.312-0.282-0.682-0.436-1.091-0.4c-0.393,0.033-0.792,0.103-1.163,0.229c-0.457,0.156-0.803,0.503-0.963,0.955
	c-0.268,0.758-0.056,1.564,0.926,1.503C65.131,31.449,65.397,31.464,65.593,31.464z M59.826,20.215
	c0.001-0.012,0.001-0.022,0.001-0.033c0.398,0,0.796,0.003,1.193-0.001c0.19-0.001,0.376-0.192,0.371-0.388
	c-0.006-0.203-0.046-0.436-0.256-0.482c-0.513-0.11-1.039-0.164-1.559-0.251c-0.717-0.12-1.434-0.243-2.147-0.378
	c-0.419-0.078-0.706-0.326-0.89-0.715c-0.141-0.296-0.316-0.576-0.489-0.854c-0.02-0.033-0.131-0.035-0.188-0.016
	c-0.051,0.018-0.127,0.087-0.123,0.127c0.047,0.521,0.079,1.046,0.17,1.561c0.12,0.678,0.664,1.213,1.35,1.283
	C58.112,20.154,58.971,20.168,59.826,20.215z M49.871,21.47c-0.433,0.038-0.83,0.065-1.225,0.109
	c-0.302,0.034-0.471,0.544-0.248,0.792c0.129,0.139,0.303,0.305,0.474,0.324c0.39,0.051,0.797,0.064,1.185,0.006
	c0.412-0.064,0.707-0.354,0.853-0.749c0.031-0.087-0.041-0.302-0.103-0.317C50.491,21.553,50.164,21.516,49.871,21.47z
	 M27.295,66.945c0.016,1.32-0.439,2.479-1.27,3.492c-0.208,0.253-0.477,0.469-0.748,0.653c-0.274,0.187-0.597,0.299-0.883,0.468
	c-1.822,1.079-3.59,0.698-5.328-0.212c-0.412-0.215-0.791-0.493-1.193-0.73c-1.268-0.748-1.813-1.912-1.878-3.326
	c-0.038-0.813,0.185-1.616,0.52-2.324c0.515-1.085,1.251-2.05,2.237-2.777c0.379-0.279,0.813-0.45,1.299-0.463
	c1.854-0.052,3.549,0.474,5.145,1.388C26.682,63.965,27.291,65.286,27.295,66.945z M18.796,64.526
	c-0.208-0.273-0.208-0.273-0.409-0.001c-0.233,0.047-0.3,0.221-0.325,0.426c-0.055,0.432,0.226,0.757,0.356,1.128
	c0.093,0.264,0.066,0.524-0.043,0.777c-0.069,0.161-0.167,0.168-0.318,0.102c-0.095-0.042-0.313-0.031-0.325,0.007
	c-0.171,0.519-0.146,1.055-0.024,1.575c0.094,0.398,0.328,0.746,0.688,0.949c0.693,0.394,1.434,0.708,2.104,1.135
	c0.959,0.61,1.881,0.482,2.854,0.064c1.33-0.572,2.147-1.54,2.438-2.955c0.066-0.327,0.149-0.653,0.182-0.983
	c0.1-1.014-0.495-2.169-1.354-2.732c-0.97-0.636-2.056-0.935-3.174-1.152c-0.876-0.17-1.579,0.074-2.079,0.837
	C19.184,63.981,18.986,64.251,18.796,64.526z M64.848,41.85c0.95,0.006,1.847,0.214,2.734,0.552
	c1.105,0.421,1.972,1.141,2.652,2.062c0.985,1.332,1.171,2.783,0.469,4.338c-0.95,2.104-2.747,2.999-4.849,3.446
	c-0.66,0.141-1.341-0.004-1.967-0.251c-0.811-0.321-1.535-0.782-2.145-1.432c-0.771-0.822-1.114-1.845-1.223-2.895
	c-0.169-1.645,0.224-3.191,1.34-4.48C62.646,42.283,63.637,41.806,64.848,41.85z M65.52,51.52c0.336-0.104,0.864-0.209,1.343-0.426
	c1.542-0.699,2.564-1.85,2.999-3.518c0.275-1.057,0.169-1.971-0.688-2.727c-0.298-0.263-0.572-0.555-0.845-0.845
	c-0.283-0.302-0.634-0.499-1.018-0.608c-0.446-0.127-0.913-0.18-1.364-0.287c-1.403-0.331-2.47,0.188-3.318,1.283
	c-0.498,0.645-0.82,1.38-0.982,2.166c-0.212,1.031,0.442,1.925,0.552,2.914c0.053,0.483,0.435,0.808,0.769,1.138
	C63.622,51.26,64.437,51.489,65.52,51.52z M70.248,81.788c-1.47-0.058-2.828-0.795-3.775-2.216c-0.486-0.731-0.719-1.55-0.562-2.46
	c0.194-1.119,0.487-2.203,0.937-3.245c0.219-0.511,0.581-0.864,1.066-1.136c0.978-0.545,1.992-0.713,3.073-0.418
	c0.511,0.14,1.02,0.292,1.519,0.469c1.253,0.445,2.224,1.179,2.562,2.555c0.063,0.254,0.226,0.48,0.314,0.73
	c0.138,0.382,0.165,0.78,0.061,1.177c-0.1,0.385-0.227,0.764-0.327,1.148c-0.494,1.895-1.9,2.789-3.632,3.329
	c-0.126,0.039-0.262,0.057-0.394,0.064C70.892,81.796,70.691,81.788,70.248,81.788z M74.192,76.665
	c-0.104-0.368-0.259-0.809-0.35-1.264c-0.131-0.649-0.541-1.05-1.092-1.34c-0.353-0.185-0.716-0.35-1.076-0.519
	c-0.631-0.3-1.281-0.327-1.945-0.129c-0.255,0.076-0.509,0.157-0.762,0.237c-0.83,0.266-1.369,0.792-1.508,1.68
	c-0.04,0.263-0.045,0.542-0.143,0.782c-0.326,0.796-0.164,1.568,0.034,2.35c0.136,0.534,0.429,0.977,0.833,1.334
	c0.786,0.695,1.747,0.948,2.766,0.942c0.608-0.004,1.18-0.232,1.62-0.679c0.327-0.33,0.668-0.663,0.915-1.05
	C73.918,78.331,74.143,77.564,74.192,76.665z M39.379,62.026c0.238,0.052,0.699,0.123,1.139,0.258
	c0.379,0.116,0.73,0.32,1.104,0.464c1.135,0.44,1.803,1.327,2.277,2.388c0.193,0.429,0.256,0.899,0.135,1.367
	c-0.287,1.117-0.739,2.127-1.719,2.838c-0.438,0.316-0.883,0.591-1.403,0.733c-0.255,0.071-0.526,0.096-0.776,0.182
	c-1.371,0.468-2.627,0.094-3.844-0.522c-0.49-0.247-0.814-0.654-1.001-1.188c-0.514-1.473-0.386-2.874,0.423-4.209
	c0.174-0.285,0.353-0.564,0.541-0.839C36.951,62.479,37.955,62.062,39.379,62.026z M39.652,69.241
	c1.901-0.036,3.279-1.815,3.162-3.665c-0.008-0.129-0.057-0.261-0.11-0.38c-0.903-2.006-2.739-2.239-4.335-1.739
	c-0.063,0.019-0.123,0.054-0.176,0.09c-1.098,0.753-1.844,1.716-1.874,3.108c-0.009,0.416,0.086,0.787,0.437,1.058
	c0.42,0.322,0.827,0.661,1.254,0.977C38.505,69.055,39.072,69.225,39.652,69.241z M52.842,70.185
	c-0.492,0.006-1.004-0.063-1.511-0.291c-1.048-0.473-2.006-2.576-1.55-3.827c0.258-0.707,0.667-1.315,1.32-1.714
	c0.221-0.136,0.482-0.253,0.735-0.278c1.091-0.11,2.13,0.131,3.116,0.583c0.503,0.23,0.875,0.635,1.07,1.147
	c0.188,0.496,0.313,1.019,0.441,1.535c0.258,1.038,0.237,1.5-1.063,2.283C54.621,70.093,53.76,70.146,52.842,70.185z M55.367,67.283
	c-0.022-0.172-0.063-0.634-0.151-1.087c-0.12-0.614-0.608-1.063-1.243-1.103c-0.59-0.038-1.188-0.032-1.776,0.01
	c-0.848,0.063-1.676,1.168-1.521,2.021c0.347,1.902,0.91,2.252,2.646,2.252c0.198,0,0.397-0.022,0.593-0.048
	C54.927,69.195,55.408,68.615,55.367,67.283z M77.658,57.141c-0.046,1.427-0.791,2.225-1.839,2.796
	c-0.288,0.157-0.619,0.238-0.928,0.358c-0.733,0.284-1.431,0.22-2.092-0.212c-0.056-0.036-0.116-0.063-0.172-0.1
	c-1.165-0.76-1.532-1.191-1.164-2.841c0.226-1.009,0.742-1.847,1.663-2.381c0.728-0.422,1.484-0.573,2.272-0.163
	c0.411,0.214,0.824,0.426,1.219,0.668C77.37,55.727,77.648,56.443,77.658,57.141z M74.828,55.59
	c-1.484,0.076-2.289,0.781-2.51,2.138c-0.083,0.509,0.102,0.922,0.44,1.264c0.587,0.591,1.224,0.689,1.995,0.327
	c0.299-0.141,0.611-0.281,0.863-0.487c0.599-0.485,0.927-1.126,0.878-1.913c-0.011-0.189-0.059-0.422-0.178-0.553
	C75.907,55.918,75.423,55.576,74.828,55.59z M29.747,58.12c-2.163-0.125-2.824-0.712-3.605-2.806
	c-0.446-1.197,0.132-2.441,1.278-3.015c0.297-0.148,0.607-0.271,0.916-0.394c0.385-0.153,0.777-0.149,1.172-0.035
	c0.91,0.261,1.744,0.715,2.432,1.326c0.713,0.632,1.126,1.504,0.893,2.51C32.396,57.577,31.662,58.122,29.747,58.12z M27.02,54.806
	c0.055,1.271,0.389,1.866,1.42,2.201c0.379,0.123,0.748,0.283,1.13,0.394c0.76,0.221,1.7-0.215,1.993-0.928
	c0.152-0.367,0.271-0.75,0.377-1.135c0.109-0.401,0.023-0.789-0.151-1.161c-0.202-0.429-0.497-0.782-0.864-1.08
	c-0.56-0.455-1.201-0.579-1.877-0.393c-0.377,0.104-0.744,0.293-1.072,0.51C27.32,53.647,26.988,54.274,27.02,54.806z
	 M52.055,44.004c-0.254-0.04-0.465-0.036-0.646-0.109c-0.563-0.225-1.079-0.531-1.466-1.014c-0.217-0.272-0.301-0.579-0.262-0.933
	c0.078-0.704,0.452-1.236,0.932-1.727c0.714-0.731,1.44-0.87,2.338-0.354c0.459,0.266,0.879,0.604,1.291,0.939
	c0.332,0.27,0.438,0.667,0.415,1.08c-0.056,0.992-0.563,1.662-1.475,1.918C52.8,43.912,52.397,43.945,52.055,44.004z M53.735,41.97
	c-0.04-0.179-0.024-0.354-0.104-0.425c-0.812-0.729-1.718-0.803-2.502-0.14c-0.132,0.112-0.225,0.345-0.225,0.522
	c-0.001,0.755,0.862,1.373,1.544,1.099c0.364-0.147,0.712-0.357,1.03-0.59C53.618,42.334,53.665,42.105,53.735,41.97z
	 M26.863,47.953c-0.012,0.104-0.021,0.372-0.071,0.631c-0.103,0.533-0.716,1.119-1.236,1.162c-1.022,0.082-1.979-0.133-2.852-0.686
	c-0.111-0.07-0.202-0.172-0.302-0.261c-0.436-0.396-0.566-0.883-0.42-1.446c0.154-0.596,0.469-1.117,0.91-1.521
	c0.582-0.534,1.314-0.61,2.057-0.43c0.318,0.078,0.611,0.26,0.913,0.396c0.685,0.311,0.96,0.881,0.999,1.596
	C26.869,47.526,26.863,47.659,26.863,47.953z M25.894,47.777c0-0.158,0.004-0.225,0-0.29c-0.05-0.827-0.66-1.272-1.497-1.099
	c-0.332,0.069-0.607,0.228-0.842,0.471c-0.597,0.615-0.374,1.652,0.438,1.93c0.305,0.104,0.641,0.135,0.963,0.152
	c0.4,0.021,0.76-0.283,0.852-0.678C25.852,48.074,25.877,47.879,25.894,47.777z M59.885,56.831c0.425,0.023,0.881,0.11,1.279,0.392
	c0.328,0.231,0.661,0.456,0.979,0.699c0.739,0.562,1.041,1.23,0.531,2.506c-0.329,0.823-1.418,1.313-2.352,1.098
	c-0.535-0.123-1-0.381-1.401-0.746c-0.143-0.131-0.271-0.303-0.344-0.481c-0.335-0.83-0.418-1.673-0.113-2.543
	C58.684,57.132,59.176,56.774,59.885,56.831z M62.075,59.07c-0.053-0.119-0.078-0.261-0.159-0.354
	c-0.396-0.455-0.888-0.772-1.459-0.965c-0.484-0.162-1.122,0.125-1.332,0.589c-0.301,0.668-0.144,1.509,0.375,2.001
	c0.491,0.467,1.165,0.556,1.83,0.238C61.755,60.378,62.123,59.631,62.075,59.07z M59.349,78.84c-0.067,0.146-0.159,0.475-0.351,0.73
	c-0.279,0.375-0.66,0.656-1.107,0.826c-0.746,0.282-1.444,0.194-2.06-0.32c-0.585-0.491-0.975-1.086-0.907-1.898
	c0.043-0.505,0.454-1.076,0.917-1.201c0.384-0.103,0.776-0.204,1.17-0.235c0.253-0.021,0.541,0.036,0.769,0.148
	c0.415,0.205,0.799,0.471,1.188,0.724C59.354,77.862,59.415,78.246,59.349,78.84z M56.873,77.473c-0.492,0.009-0.944,0.423-1.093,1
	c-0.082,0.319,0.074,0.681,0.346,0.863c0.466,0.312,0.976,0.426,1.518,0.32c0.428-0.085,0.678-0.396,0.788-0.807
	c0.094-0.354-0.042-0.657-0.288-0.902C57.797,77.603,57.356,77.47,56.873,77.473z M44.439,52.866c0.057-1,0.818-1.539,1.761-1.236
	c0.185,0.06,0.381,0.125,0.533,0.239c0.37,0.278,0.661,0.63,0.852,1.06c0.147,0.33,0.042,0.833-0.237,1.079
	c-0.55,0.482-1.176,0.533-1.838,0.311c-0.183-0.061-0.346-0.184-0.513-0.286C44.566,53.763,44.385,53.37,44.439,52.866z
	 M46.956,53.263c0.056-0.431-0.182-0.818-0.546-0.891c-0.453-0.09-0.929,0.239-0.977,0.701c-0.012,0.115,0.033,0.27,0.111,0.354
	c0.306,0.335,0.873,0.402,1.224,0.149C46.859,53.511,46.896,53.369,46.956,53.263z M60.574,26.35c0.029,0.573-0.213,1.1-0.695,1.516
	c-0.815,0.701-1.754,0.945-2.793,0.665c-1.781-0.479-2.294-1.331-1.928-3.086c0.096-0.456,0.25-0.894,0.563-1.265
	c1.091-1.295,2.369-1.244,3.724-0.317C60.326,24.467,60.562,25.134,60.574,26.35z M58.118,24.258
	c-0.188,0.016-0.456,0.02-0.717,0.064c-0.753,0.131-1.468,0.865-1.591,1.616c-0.099,0.604,0.159,1.093,0.697,1.282
	c0.378,0.132,0.76,0.26,1.147,0.358c0.798,0.203,1.607-0.144,2.073-0.865c0.385-0.595,0.289-1.52-0.231-2.036
	c-0.137-0.134-0.322-0.246-0.506-0.297C58.736,24.308,58.464,24.303,58.118,24.258z M42.923,26.609c0,0.061,0.003,0.127-0.001,0.193
	c-0.063,1.384-1.355,2.275-2.653,1.828c-1.292-0.447-1.793-1.139-1.819-2.514c-0.018-0.879,0.477-1.506,1.348-1.732
	c0.836-0.216,1.577-0.059,2.222,0.525C42.523,25.367,42.959,25.858,42.923,26.609z M40.487,27.754
	c0.53-0.023,0.923-0.083,1.237-0.358c0.09-0.079,0.193-0.237,0.174-0.333c-0.098-0.443-0.182-0.901-0.372-1.308
	c-0.321-0.688-1.604-0.692-2.03-0.036c-0.268,0.414-0.339,0.867-0.18,1.328c0.06,0.17,0.199,0.361,0.355,0.438
	C39.961,27.627,40.289,27.691,40.487,27.754z M18.828,64.473c-0.157,0.002-0.314,0.003-0.471,0.005
	C18.516,64.673,18.674,64.743,18.828,64.473z"/>
</svg>
